<svg width="59" height="25" viewBox="0 0 59 25" fill="none" xmlns="http://www.w3.org/2000/svg">
<path d="M35.7471 1.99311V3.21875L35.3583 2.76128C35.0695 2.42247 34.7182 2.16798 34.3044 1.99779C33.8875 1.82761 33.4004 1.74017 32.8446 1.74017C32.2887 1.74017 31.7704 1.84791 31.2942 2.06649C30.8133 2.28508 30.3699 2.61608 29.9655 3.05481C29.5642 3.49042 29.2644 3.97443 29.0646 4.50841C28.8632 5.04238 28.7632 5.63257 28.7632 6.27271C28.7632 6.91286 28.8632 7.51241 29.0646 8.0495C29.2644 8.5866 29.5658 9.07217 29.9655 9.50778C30.3652 9.94027 30.8055 10.2666 31.2832 10.4821C31.7594 10.696 32.2825 10.8052 32.8446 10.8052C33.4066 10.8052 33.8875 10.7194 34.3044 10.5476C34.7182 10.379 35.0695 10.1229 35.3583 9.78414L35.7471 9.32823V10.5523H38.0048V1.99311H35.7471ZM31.1833 7.25322C31.0756 6.96126 31.0209 6.63338 31.0209 6.27271C31.0209 5.91204 31.0756 5.5826 31.1833 5.2922C31.2942 4.99398 31.4612 4.7348 31.6798 4.51465C31.8984 4.29607 32.1529 4.13057 32.4402 4.02127C32.7243 3.91198 33.0397 3.85577 33.3832 3.85577C33.7267 3.85577 34.0421 3.91042 34.3247 4.01971C34.612 4.12744 34.8665 4.29451 35.0866 4.51465C35.3083 4.73636 35.4754 4.99554 35.5831 5.2922C35.6909 5.58417 35.7455 5.91204 35.7455 6.27271C35.7455 6.63338 35.6909 6.96126 35.5831 7.25322C35.4738 7.55144 35.3083 7.81062 35.0866 8.03077C34.868 8.24935 34.6135 8.41485 34.3247 8.52571C34.0405 8.635 33.7251 8.68965 33.3817 8.68965C33.0382 8.68965 32.7212 8.635 32.4386 8.52571C32.1513 8.41485 31.8968 8.24935 31.6782 8.03077C31.4581 7.81062 31.2926 7.54988 31.1817 7.25322H31.1833ZM47.1401 2.06649C46.6639 1.84791 46.1455 1.74017 45.5881 1.74017C45.0307 1.74017 44.5452 1.82605 44.1283 1.99779C43.7161 2.16642 43.3632 2.42247 43.0744 2.76128L42.6856 3.21719V1.99311H40.4279V14.0013H42.6856V9.32823L43.0744 9.78414C43.3632 10.1229 43.7161 10.379 44.1283 10.5476C44.5467 10.7194 45.0354 10.8052 45.5897 10.8052C46.144 10.8052 46.6748 10.6975 47.151 10.4821C47.6303 10.2666 48.0706 9.94027 48.4688 9.50778C48.8685 9.07217 49.1698 8.58504 49.3697 8.0495C49.5695 7.51241 49.6694 6.9191 49.6694 6.27271C49.6694 5.62632 49.568 5.04238 49.3697 4.50841C49.1698 3.97443 48.8685 3.48886 48.4688 3.05481C48.0644 2.61608 47.621 2.28508 47.1401 2.06649ZM44.1142 8.52415C43.8285 8.41485 43.5725 8.24935 43.3476 8.03077C43.1259 7.80906 42.9588 7.54832 42.8496 7.25166C42.7418 6.9597 42.6872 6.63182 42.6872 6.27115C42.6872 5.91048 42.7418 5.58104 42.8496 5.29063C42.9604 4.99242 43.1275 4.73324 43.3461 4.51309C43.574 4.29295 43.8301 4.12744 44.1158 4.01815C44.4015 3.90886 44.7138 3.85421 45.051 3.85421C45.7349 3.85421 46.2985 4.07436 46.7373 4.51309C47.1885 4.95183 47.4149 5.53889 47.4149 6.27115C47.4149 6.63338 47.3587 6.96282 47.2478 7.25322C47.1354 7.54832 46.9637 7.80906 46.7373 8.02921C46.5187 8.24779 46.2657 8.41329 45.9816 8.52415C45.7005 8.63344 45.3898 8.68809 45.0526 8.68809C44.7153 8.68809 44.4031 8.63344 44.1189 8.52415H44.1142ZM58.1303 1.99155H50.472V4.1415H53.1902V10.5508H55.4479V4.14306H58.1303V1.99311V1.99155Z" fill="#656565"/>
<path d="M36.3579 14.444L32.1845 19.3201V14.444H29.9986V23.0032H31.6567L35.8317 18.1272V23.0032H38.0176V14.444H36.3594H36.3579ZM46.1989 14.444V17.6838H42.6969V14.444H40.4392V23.0032H42.6969V19.7635H46.1989V23.0032H48.4566V14.444H46.1989Z" fill="#656565"/>
<path d="M50.4722 23.0024H58.1305V20.8524H55.4482V10.9942H53.1905V20.8524H50.4722V23.0024Z" fill="#656565"/>
<path fill-rule="evenodd" clip-rule="evenodd" d="M1.70497 0H12.5V2.24988L4.15938 7.16806V22.6799L8.27973 22.7501V19.3698L12.4984 16.9373V25H1.70497C0.766613 25 0 24.2334 0 23.2935V1.70497C0 0.766613 0.766613 0 1.70497 0ZM12.5 11.9348L8.28129 14.3705V9.50537L12.5 7.07594V11.9348Z" fill="#656565"/>
<path fill-rule="evenodd" clip-rule="evenodd" d="M23.2932 0H12.4997V2.24906L20.8403 7.16724V22.679L16.7184 22.7493V19.369L12.4997 16.9365V25H23.2932C24.2331 25 24.9997 24.2318 24.9997 23.2935V1.70497C24.9997 0.766613 24.2315 0 23.2932 0ZM12.4997 11.934L16.7184 14.3697V9.50455L12.4997 7.07513V11.934Z" fill="#656565"/>
</svg>
