<svg width="180" height="41" viewBox="0 0 180 41" fill="none" xmlns="http://www.w3.org/2000/svg">
<path d="M21.572 6.68383C18.8284 6.64211 16.4734 8.40929 15.7737 11.0013H14.6038C14.2739 7.60344 10.9614 6.68383 9.00273 6.68383C6.27233 6.68383 4.15438 8.32965 3.41869 11.0013H2.53699C3.3163 9.61521 3.93063 7.48967 3.96097 7.38728L4.08232 6.96445H0L0.0360261 25.0344H4.00648V14.9907C4.00648 13.8663 4.74596 12.4139 5.80399 11.4582C6.47142 10.8534 7.56548 10.1632 9.00273 10.3092C11.8203 10.5917 12.4973 13.2444 12.5674 15.4097V25.0363H16.5739V14.9926C16.5739 13.8701 17.3134 12.4158 18.3714 11.4601C19.0407 10.8553 20.1329 10.1651 21.5701 10.3111C24.3878 10.5936 25.0647 13.2463 25.1348 15.4116V25.0382H29.1053V15.5804C29.037 11.1833 26.682 6.72744 21.572 6.68952V6.68383Z" fill="#FF4100"/>
<path d="M46.4698 15.6999C46.4793 14.9812 46.4888 14.2398 46.4888 13.4473C46.4205 10.8496 45.9313 8.93833 43.6977 7.43661C42.7269 6.77676 40.9938 6.06383 38.2597 6.40513C34.9889 6.69902 32.4613 8.68425 31.4981 11.718L31.4033 12.0176L35.0097 13.3752L35.0969 13.0093C35.516 11.2724 37.0841 9.94327 38.8816 9.7821H38.9347C39.6912 9.74986 41.5304 9.83519 42.2737 11.2705C42.4406 11.6024 42.5278 12.2869 42.5221 13.1648C42.2282 13.2065 41.9267 13.2444 41.6215 13.2842C38.4208 13.6995 34.7955 14.1716 32.8918 17.139L32.8633 17.1807C32.2755 18.0776 31.4356 19.9187 32.4139 22.1523C33.3411 24.2494 35.3264 25.552 37.5903 25.552C40.2089 25.552 42.5335 23.7602 43.1156 21.3408H44.149C44.0295 21.9324 43.9726 22.9297 44.4846 23.8038C45.0572 24.6647 45.7227 25.0306 46.7106 25.0306H49.2362V21.373H46.5949C46.4205 19.4238 46.4433 17.6908 46.4679 15.698L46.4698 15.6999ZM35.9995 19.5584L36.0052 19.5243C36.3294 17.1636 40.0666 16.3407 42.5145 16.0544C42.4899 18.9024 42.1144 21.6309 39.0427 22.1087C38.5498 22.1751 37.395 22.3287 36.6385 21.5721C35.7947 20.7587 35.9957 19.5793 35.9995 19.5584Z" fill="#FF4100"/>
<path d="M60.9372 6.71981C58.2257 6.82789 56.0907 8.54007 55.4309 11.1055H54.6098C55.3929 9.96405 55.8025 8.83018 55.9883 7.33604L56.0357 6.96251H52.0558V25.0324H56.0262V14.7441C56.0262 11.8128 59.206 10.3414 60.9865 10.3414C62.3005 10.3414 63.1992 10.6106 63.6183 10.7718L64.0695 10.9443V7.28295L63.8666 7.19763C63.3983 7.00043 62.3915 6.6762 60.9391 6.71981H60.9372Z" fill="#FF4100"/>
<path d="M74.7541 18.7147L74.7371 21.5494H73.6601V18.8171L69.8792 6.96259H65.8652L72.0806 25.0325H76.3848L82.6363 6.96259H78.6222L74.7541 18.7147Z" fill="#FF4100"/>
<path d="M88.9522 6.96259H84.9818V25.0325H88.9522V6.96259Z" fill="#FF4100"/>
<path d="M101.32 6.6838C98.6545 6.64208 96.4683 8.33341 95.7326 11.0012H94.851C95.6303 9.61518 96.2465 7.48965 96.2749 7.38726L96.3963 6.96442H92.3159L92.3519 25.0343H96.3223V14.9907C96.3223 13.8663 97.0618 12.4138 98.1198 11.4582C98.7873 10.8533 99.8794 10.1632 101.319 10.3092C104.136 10.5917 104.813 13.2443 104.883 15.4097V25.0362H108.854V15.5784C108.785 11.1814 106.43 6.72551 101.32 6.68759V6.6838Z" fill="#FF4100"/>
<path d="M116.918 0H112.947V25.0324H116.918V0Z" fill="#FF4100"/>
<path d="M135.166 15.6999C135.176 14.9812 135.185 14.2398 135.185 13.4473C135.117 10.8496 134.628 8.93833 132.394 7.43661C131.423 6.77676 129.69 6.06383 126.956 6.40513C123.685 6.69902 121.158 8.68425 120.194 11.718L120.1 12.0176L123.706 13.3752L123.793 13.0093C124.212 11.2724 125.78 9.94327 127.578 9.7821H127.631C128.386 9.74986 130.227 9.83519 130.97 11.2705C131.137 11.6024 131.224 12.2869 131.218 13.1648C130.924 13.2065 130.623 13.2444 130.318 13.2842C127.117 13.6995 123.492 14.1716 121.588 17.139L121.56 17.1807C120.972 18.0776 120.132 19.9187 121.11 22.1523C122.037 24.2494 124.023 25.552 126.287 25.552C128.905 25.552 131.23 23.7602 131.812 21.3408H132.845C132.726 21.9324 132.669 22.9297 133.181 23.8038C133.753 24.6647 134.419 25.0306 135.407 25.0306H137.932V21.373H135.291C135.117 19.4238 135.139 17.6908 135.164 15.698L135.166 15.6999ZM124.696 19.5584L124.703 19.5243C125.028 17.1636 128.765 16.3407 131.213 16.0544C131.188 18.9024 130.813 21.6309 127.741 22.1087C127.248 22.1751 126.093 22.3287 125.337 21.5721C124.493 20.7587 124.692 19.5831 124.698 19.5584H124.696Z" fill="#FF4100"/>
<path d="M154.444 8.5287C153.065 7.17867 151.222 6.47901 149.171 6.51124C146.482 6.54727 144.283 8.29737 143.621 10.8969H142.781C143.293 10.093 143.918 8.79984 144.14 7.04784C144.176 6.8696 144.216 6.66862 144.216 6.49417V0H140.246V25.0324H144.044V24.7006C144.044 24.2095 143.956 23.6141 143.786 22.9714C143.568 22.2319 143.251 21.5682 142.842 20.9956H143.663C144.544 23.1155 145.993 25.4515 149.247 25.4515C151.203 25.4515 152.953 24.7291 154.311 23.3639C156.103 21.5588 157.119 18.7222 157.098 15.5784C157.077 12.685 156.135 10.1821 154.446 8.5287H154.444ZM153.124 15.586C153.16 17.9846 152.639 19.7992 151.617 20.8363C150.978 21.4848 150.132 21.828 149.174 21.828C146.903 21.828 145.234 20.258 144.214 17.1636V14.4844C145.13 11.718 146.935 10.1328 149.174 10.1328C151.04 10.1328 153.058 11.5644 153.124 15.5841V15.586Z" fill="#FF4100"/>
<path d="M166.471 15.1078C166.083 14.7494 165.772 14.3986 165.459 14.0517C164.96 13.4999 164.376 13.0486 163.792 12.5954C163.21 12.1423 162.704 11.6246 162.368 10.9534C162 10.2234 162.01 9.50478 162.391 8.78805C162.619 8.36143 162.893 7.96514 163.216 7.60299C163.58 7.19532 164.037 6.97727 164.577 6.92228C164.901 6.89005 165.226 6.91091 165.546 6.964C165.806 7.00761 166.066 7.05501 166.325 7.1062C166.875 7.21428 167.421 7.18015 167.966 7.07966C168.121 7.05122 168.271 7.00002 168.417 6.93555C168.77 6.77628 168.995 6.51272 169.099 6.14109C169.177 5.86236 169.192 5.57604 169.194 5.28973C169.194 4.91999 169.187 4.55025 169.19 4.18051C169.2 3.38793 169.325 2.61811 169.687 1.90328C169.996 1.29653 170.389 0.759927 170.98 0.395874C171.513 0.067847 172.091 -0.0648806 172.713 0.0299248C173.565 0.160756 174.181 0.733381 174.38 1.57336C174.505 2.10048 174.467 2.6238 174.304 3.13575C173.982 4.15207 173.388 4.95791 172.446 5.48693C172.118 5.67085 171.782 5.8415 171.468 6.05007C171.056 6.32311 171.039 6.72509 171.164 7.0607C171.206 7.17257 171.261 7.28254 171.314 7.38873C171.682 8.12252 171.773 8.87907 171.521 9.66975C171.445 9.90676 171.382 10.1476 171.318 10.3884C171.204 10.8131 171.198 11.2378 171.318 11.6626C171.382 11.8958 171.443 12.129 171.504 12.3622C171.574 12.6315 171.633 12.9045 171.657 13.1832C171.724 13.8962 171.509 14.5086 170.984 15.0016C170.704 15.2652 170.406 15.506 170.091 15.7278C169.257 16.3137 168.4 16.3289 167.51 15.8681C167.105 15.6577 166.748 15.3846 166.468 15.1078H166.471Z" fill="#FF4100"/>
<path d="M177.507 8.10163C176.887 8.76717 176.185 9.21086 175.334 9.40047C174.847 9.50855 174.361 9.51234 173.885 9.3379C173.239 9.10088 172.841 8.64202 172.695 7.9727C172.55 7.30906 172.695 6.68145 173.002 6.09365C173.517 5.10578 174.302 4.40991 175.351 4.01931C175.757 3.86762 176.18 3.79747 176.616 3.82591C177.782 3.90175 178.542 4.74931 178.483 5.91542C178.449 6.62456 178.171 7.2427 177.751 7.80394C177.666 7.91771 177.569 8.02389 177.505 8.10163H177.507Z" fill="#FF4100"/>
<path d="M167.526 5.21763C167.253 5.5248 166.945 5.78836 166.578 5.97418C166.096 6.21688 165.609 6.2567 165.133 5.9647C164.852 5.79405 164.636 5.55135 164.463 5.27072C163.8 4.19563 163.732 2.34692 165.028 1.1903C165.741 0.5551 166.574 0.359801 167.49 0.693516C168.32 0.996893 168.79 1.725 168.756 2.60859C168.735 3.1888 168.538 3.71402 168.256 4.21269C168.051 4.57485 167.812 4.91236 167.526 5.21574V5.21763Z" fill="#FF4100"/>
<path d="M177.966 13.2685C176.801 14.5181 175.017 14.757 173.762 13.9758C173.563 13.8507 173.385 13.6952 173.244 13.5094C172.983 13.1643 172.909 12.7775 173.004 12.3546C173.085 11.9944 173.258 11.6758 173.483 11.3914C174.014 10.7183 174.663 10.1874 175.453 9.84228C175.704 9.7342 175.963 9.65835 176.235 9.62233C177.281 9.48581 178.172 10.0736 178.438 11.0994C178.669 11.9925 178.417 12.7642 177.968 13.2704L177.966 13.2685Z" fill="#FF4100"/>
<path d="M1.21161 35.6581C2.20897 35.6581 2.81383 36.1568 2.81383 36.9399C2.81383 37.3324 2.63559 37.5808 2.3872 37.759C3.10014 38.0093 3.42058 38.508 3.42058 39.1129C3.42058 39.968 2.70764 40.6449 1.74632 40.6449H0.0360261L0 40.6089V35.6923L0.0360261 35.6562H1.21161V35.6581ZM0.712937 37.5827H1.21161C1.74632 37.5827 1.99471 37.4045 1.99471 36.9418C1.99471 36.5493 1.74442 36.3711 1.21161 36.3711H0.712937V37.5827ZM0.712937 39.9339H1.74632C2.28102 39.9339 2.60146 39.6134 2.60146 39.1148C2.60146 38.6521 2.28102 38.2956 1.74632 38.2956H0.712937V39.9339Z" fill="#FF4100"/>
<path d="M7.30378 35.6582L7.33981 35.6942V36.3351L7.30378 36.3711H4.98863V37.5467H6.73495L6.77098 37.5828V38.2236L6.73495 38.2597H4.98863V39.9339H7.51804L7.55407 39.97V40.6108L7.51804 40.6469H4.31172L4.2757 40.6108V35.6942L4.31172 35.6582H7.30378Z" fill="#FF4100"/>
<path d="M12.0042 35.6582L12.0403 35.6942V36.3351L12.0042 36.3711H10.402V40.6108L10.366 40.6469H9.72511L9.68908 40.6108V36.3711H8.08687L8.05084 36.3351V35.6942L8.08687 35.6582H12.0061H12.0042Z" fill="#FF4100"/>
<path d="M15.8514 35.6582L15.8874 35.6942V36.3351L15.8514 36.3711H13.5362V37.5467H15.2826L15.3186 37.5828V38.2236L15.2826 38.2597H13.5362V39.9339H16.0657L16.1017 39.97V40.6108L16.0657 40.6469H12.8593L12.8233 40.6108V35.6942L12.8593 35.6582H15.8514Z" fill="#FF4100"/>
<path d="M18.5232 35.6582C19.5205 35.6582 20.2335 36.3351 20.2335 37.1903C20.2335 38.0454 19.5205 38.7223 18.5232 38.7223H17.668V40.6108L17.632 40.6469H16.9911L16.9551 40.6108V35.6942L16.9835 35.6582H18.5232ZM17.668 38.0094H18.5232C19.0579 38.0094 19.4143 37.6529 19.4143 37.1903C19.4143 36.7276 19.0579 36.3711 18.5232 36.3711H17.668V38.0094Z" fill="#FF4100"/>
<path d="M21.6933 35.6582L21.7294 35.6942V39.5054L24.6513 35.6942L24.7214 35.6582H25.3983L25.4344 35.6942V40.6108L25.3983 40.6469H24.7574L24.7214 40.6108V36.7997L21.7995 40.6108L21.7275 40.6469H21.0506L21.0145 40.6108V35.6942L21.0506 35.6582H21.6914H21.6933Z" fill="#FF4100"/>
<path d="M27.2508 35.6582L27.2869 35.6942V37.5467H29.9945V35.6942L30.0305 35.6582H30.6714L30.7074 35.6942V40.6108L30.6714 40.6469H30.0305L29.9945 40.6108V38.2597H27.2869V40.6108L27.2508 40.6469H26.6099L26.5739 40.6108V35.6942L26.6099 35.6582H27.2508Z" fill="#FF4100"/>
<path d="M34.0181 35.6582L34.0541 35.6942L36.0489 40.6108L36.0128 40.6469H35.2999L35.2639 40.6108L34.8012 39.4713H32.5922L32.1296 40.6108L32.0936 40.6469H31.3806L31.3446 40.6108L33.3393 35.6942L33.3753 35.6582H34.0162H34.0181ZM32.8786 38.7583H34.5168L33.6977 36.6575L32.8786 38.7583Z" fill="#FF4100"/>
<path d="M38.2558 35.6582C39.2532 35.6582 39.9661 36.3351 39.9661 37.1903C39.9661 38.0454 39.2532 38.7223 38.2558 38.7223H37.4007V40.6108L37.3647 40.6469H36.7238L36.6877 40.6108V35.6942L36.7162 35.6582H38.2558ZM37.4007 38.0094H38.2558C38.7905 38.0094 39.147 37.6529 39.147 37.1903C39.147 36.7276 38.7905 36.3711 38.2558 36.3711H37.4007V38.0094Z" fill="#FF4100"/>
<path d="M41.4262 35.6582L41.4622 35.6942V37.5467H44.1698V35.6942L44.2059 35.6582H44.8468L44.8828 35.6942V40.6108L44.8468 40.6469H44.2059L44.1698 40.6108V38.2597H41.4622V40.6108L41.4262 40.6469H40.7853L40.7493 40.6108V35.6942L40.7853 35.6582H41.4262Z" fill="#FF4100"/>
<path d="M48.1952 35.6582L48.2313 35.6942L50.226 40.6108L50.19 40.6469H49.477L49.441 40.6108L48.9783 39.4713H46.7694L46.3067 40.6108L46.2707 40.6469H45.5578L45.5217 40.6108L47.5164 35.6942L47.5525 35.6582H48.1933H48.1952ZM47.0538 38.7583H48.692L47.8729 36.6575L47.0538 38.7583Z" fill="#FF4100"/>
<path d="M54.2135 35.6942V40.6108L54.1775 40.6469H53.5366L53.5006 40.6108V38.5099H52.8597L51.2916 40.6108L51.2556 40.6469H50.4005L50.3644 40.6108L52.0027 38.3658C51.468 38.1516 51.1475 37.6529 51.1475 37.0841C51.1475 36.265 51.7884 35.6601 52.7858 35.6601H54.1756L54.2116 35.6961L54.2135 35.6942ZM52.7896 36.3711C52.2549 36.3711 51.9704 36.6556 51.9704 37.0841C51.9704 37.5126 52.2549 37.797 52.7896 37.797H53.5025V36.3711H52.7896Z" fill="#FF4100"/>
<path d="M61.3031 35.6582L61.3391 35.6942V40.6108L61.3031 40.6469H60.6622L60.6262 40.6108V36.3711H58.8457L58.311 39.7197C58.1688 40.3245 57.6702 40.753 56.815 40.753L56.779 40.7037V40.1122L56.815 40.0761C57.2416 40.0761 57.528 39.8619 57.6341 39.3992L58.2049 35.6942L58.2409 35.6582H61.305H61.3031Z" fill="#FF4100"/>
<path d="M64.6497 35.6582L64.6857 35.6942L66.6804 40.6108L66.6444 40.6469H65.9315L65.8955 40.6108L65.4328 39.4713H63.2238L62.7612 40.6108L62.7252 40.6469H62.0122L61.9762 40.6108L63.9709 35.6942L64.0069 35.6582H64.6478H64.6497ZM63.5102 38.7583H65.1484L64.3293 36.6575L63.5102 38.7583Z" fill="#FF4100"/>
<path d="M70.3494 35.6582L70.3855 35.6942V36.3351L70.3494 36.3711H68.0343V37.5828H69.0677C70.065 37.5828 70.7419 38.2597 70.7419 39.1148C70.7419 39.97 70.065 40.6469 69.0677 40.6469H67.3574L67.3214 40.6108V35.6942L67.3574 35.6582H70.3494ZM68.0343 39.9339H69.0677C69.6024 39.9339 69.9228 39.5775 69.9228 39.1148C69.9228 38.6522 69.6024 38.2957 69.0677 38.2957H68.0343V39.9339Z" fill="#FF4100"/>
<path d="M76.654 38.1516C76.654 39.5831 75.4708 40.7511 74.0184 40.7511C72.566 40.7511 71.3828 39.5831 71.3828 38.1516C71.3828 36.72 72.566 35.552 74.0184 35.552C75.4708 35.552 76.654 36.72 76.654 38.1516ZM72.2019 38.1516C72.2019 39.1774 73.0135 40.0041 74.0184 40.0041C75.0233 40.0041 75.8349 39.1774 75.8349 38.1516C75.8349 37.1258 75.0233 36.2991 74.0184 36.2991C73.0135 36.2991 72.2019 37.1258 72.2019 38.1516Z" fill="#FF4100"/>
<path d="M79.1473 35.6582C80.1447 35.6582 80.8576 36.3351 80.8576 37.1903C80.8576 38.0454 80.1447 38.7223 79.1473 38.7223H78.2922V40.6108L78.2561 40.6469H77.6153L77.5792 40.6108V35.6942L77.6077 35.6582H79.1473ZM78.2922 38.0094H79.1473C79.682 38.0094 80.0385 37.6529 80.0385 37.1903C80.0385 36.7276 79.682 36.3711 79.1473 36.3711H78.2922V38.0094Z" fill="#FF4100"/>
<path d="M83.1027 35.6582L83.1387 35.6942L85.1334 40.6108L85.0974 40.6469H84.3844L84.3484 40.6108L83.8857 39.4713H81.6768L81.2141 40.6108L81.1781 40.6469H80.4652L80.4291 40.6108L82.4238 35.6942L82.4599 35.6582H83.1008H83.1027ZM81.9612 38.7583H83.5994L82.7803 36.6575L81.9612 38.7583Z" fill="#FF4100"/>
<path d="M88.5161 35.6582L88.5521 35.6942V36.3351L88.5161 36.3711H86.9139V40.6108L86.8778 40.6469H86.2369L86.2009 40.6108V36.3711H84.5987L84.5627 36.3351V35.6942L84.5987 35.6582H88.518H88.5161Z" fill="#FF4100"/>
<path d="M93.8232 38.1516C93.8232 39.5831 92.6401 40.7511 91.1877 40.7511C89.7352 40.7511 88.5521 39.5831 88.5521 38.1516C88.5521 36.72 89.7352 35.552 91.1877 35.552C92.6401 35.552 93.8232 36.72 93.8232 38.1516ZM89.3712 38.1516C89.3712 39.1774 90.1827 40.0041 91.1877 40.0041C92.1926 40.0041 93.0041 39.1774 93.0041 38.1516C93.0041 37.1258 92.1926 36.2991 91.1877 36.2991C90.1827 36.2991 89.3712 37.1258 89.3712 38.1516Z" fill="#FF4100"/>
<path d="M96.3167 35.6582C97.314 35.6582 98.027 36.3351 98.027 37.1903C98.027 38.0454 97.314 38.7223 96.3167 38.7223H95.4615V40.6108L95.4255 40.6469H94.7846L94.7486 40.6108V35.6942L94.777 35.6582H96.3167ZM95.4615 38.0094H96.3167C96.8514 38.0094 97.2078 37.6529 97.2078 37.1903C97.2078 36.7276 96.8514 36.3711 96.3167 36.3711H95.4615V38.0094Z" fill="#FF4100"/>
<path d="M99.4869 35.6582L99.5229 35.6942V39.5054L102.445 35.6942L102.515 35.6582H103.192L103.228 35.6942V40.6108L103.192 40.6469H102.551L102.515 40.6108V36.7997L99.5931 40.6108L99.521 40.6469H98.8441L98.8081 40.6108V35.6942L98.8441 35.6582H99.485H99.4869Z" fill="#FF4100"/>
<path d="M107.716 35.6942V40.6108L107.68 40.6469H107.039L107.003 40.6108V38.5099H106.362L104.794 40.6108L104.758 40.6469H103.903L103.867 40.6108L105.505 38.3658C104.97 38.1516 104.65 37.6529 104.65 37.0841C104.65 36.265 105.291 35.6601 106.288 35.6601H107.678L107.714 35.6961L107.716 35.6942ZM106.29 36.3711C105.755 36.3711 105.471 36.6556 105.471 37.0841C105.471 37.5126 105.755 37.797 106.29 37.797H107.003V36.3711H106.29Z" fill="#FF4100"/>
</svg>
