<svg width="137" height="32" viewBox="0 0 137 32" fill="none" xmlns="http://www.w3.org/2000/svg">
<path d="M16.5543 5.12916C14.4489 5.09714 12.6417 6.45327 12.1047 8.44235H11.207C10.9538 5.83487 8.41177 5.12916 6.90868 5.12916C4.81338 5.12916 3.18806 6.39216 2.62349 8.44235H1.94689C2.54492 7.3787 3.01636 5.74756 3.03964 5.66899L3.13277 5.34451H0L0.0276464 19.2113H3.07457V11.5038C3.07457 10.641 3.64204 9.52638 4.45397 8.79303C4.96616 8.32886 5.80574 7.79921 6.90868 7.91125C9.07092 8.12806 9.59038 10.1637 9.64421 11.8254V19.2128H12.7188V11.5053C12.7188 10.6439 13.2863 9.52784 14.0982 8.79448C14.6118 8.33031 15.45 7.80067 16.5529 7.91271C18.7151 8.12951 19.2346 10.1652 19.2884 11.8268V19.2142H22.3353V11.9564C22.283 8.58204 20.4758 5.16262 16.5543 5.13352V5.12916Z" fill="#FF4100"/>
<path d="M35.6609 12.048C35.6682 11.4966 35.6754 10.9276 35.6754 10.3194C35.623 8.32598 35.2476 6.85927 33.5336 5.70685C32.7886 5.20048 31.4586 4.65338 29.3604 4.91529C26.8504 5.14083 24.9108 6.66429 24.1716 8.9924L24.0989 9.2223L26.8664 10.2641L26.9334 9.9833C27.2549 8.65046 28.4583 7.63045 29.8377 7.50677H29.8784C30.459 7.48204 31.8704 7.54751 32.4408 8.649C32.5688 8.90364 32.6358 9.42892 32.6314 10.1026C32.4059 10.1346 32.1745 10.1637 31.9403 10.1943C29.4841 10.5129 26.702 10.8753 25.2411 13.1524L25.2193 13.1845C24.7682 13.8727 24.1236 15.2856 24.8744 16.9997C25.586 18.609 27.1094 19.6086 28.8468 19.6086C30.8562 19.6086 32.6401 18.2336 33.0869 16.3769H33.8799C33.7882 16.8309 33.7445 17.5962 34.1374 18.267C34.5768 18.9276 35.0876 19.2085 35.8457 19.2085H37.7838V16.4016H35.7569C35.623 14.9058 35.6405 13.5759 35.6594 12.0466L35.6609 12.048ZM27.626 15.0091L27.6303 14.9829C27.8792 13.1714 30.7471 12.5399 32.6256 12.3201C32.6067 14.5057 32.3186 16.5995 29.9614 16.9662C29.583 17.0171 28.6969 17.135 28.1163 16.5544C27.4688 15.9302 27.6231 15.0251 27.626 15.0091Z" fill="#FF4100"/>
<path d="M46.7631 5.15675C44.6823 5.23969 43.0439 6.55361 42.5376 8.52233H41.9075C42.5085 7.64637 42.8228 6.77624 42.9654 5.62964L43.0017 5.343H39.9475V19.2098H42.9945V11.3146C42.9945 9.06507 45.4346 7.93593 46.8009 7.93593C47.8093 7.93593 48.499 8.14255 48.8206 8.26623L49.1669 8.39865V5.5889L49.0112 5.52342C48.6518 5.3721 47.8791 5.12328 46.7646 5.15675H46.7631Z" fill="#FF4100"/>
<path d="M57.3662 14.3616L57.3531 16.5369H56.5266V14.4402L53.6252 5.34308H50.5448L55.3146 19.2099H58.6176L63.4149 5.34308H60.3345L57.3662 14.3616Z" fill="#FF4100"/>
<path d="M68.2618 5.34308H65.2149V19.2099H68.2618V5.34308Z" fill="#FF4100"/>
<path d="M77.7532 5.12912C75.7073 5.09711 74.0297 6.39503 73.4651 8.44232H72.7885C73.3865 7.37866 73.8594 5.74752 73.8812 5.66895L73.9744 5.34447H70.843L70.8707 19.2113H73.9176V11.5038C73.9176 10.6409 74.4851 9.52634 75.297 8.79299C75.8092 8.32882 76.6473 7.79918 77.7517 7.91122C79.914 8.12802 80.4334 10.1637 80.4873 11.8254V19.2128H83.5342V11.9549C83.4818 8.58055 81.6746 5.16113 77.7532 5.13203V5.12912Z" fill="#FF4100"/>
<path d="M89.7226 0H86.6757V19.2099H89.7226V0Z" fill="#FF4100"/>
<path d="M103.726 12.048C103.733 11.4966 103.741 10.9276 103.741 10.3194C103.688 8.32598 103.313 6.85927 101.599 5.70685C100.854 5.20048 99.524 4.65338 97.4257 4.91529C94.9158 5.14083 92.9761 6.66429 92.237 8.9924L92.1642 9.2223L94.9318 10.2641L94.9987 9.9833C95.3203 8.65046 96.5236 7.63045 97.903 7.50677H97.9438C98.5229 7.48204 99.9357 7.54751 100.506 8.649C100.634 8.90364 100.701 9.42892 100.697 10.1026C100.471 10.1346 100.24 10.1637 100.006 10.1943C97.5494 10.5129 94.7673 10.8753 93.3064 13.1524L93.2846 13.1845C92.8335 13.8727 92.1889 15.2856 92.9398 16.9997C93.6513 18.609 95.1748 19.6086 96.9121 19.6086C98.9216 19.6086 100.705 18.2336 101.152 16.3769H101.945C101.854 16.8309 101.81 17.5962 102.203 18.267C102.642 18.9276 103.153 19.2085 103.911 19.2085H105.849V16.4016H103.822C103.688 14.9058 103.706 13.5759 103.725 12.0466L103.726 12.048ZM95.6913 15.0091L95.6971 14.9829C95.9459 13.1714 98.8139 12.5399 100.692 12.3201C100.673 14.5057 100.385 16.5995 98.0282 16.9662C97.6498 17.0171 96.7637 17.135 96.1831 16.5544C95.5356 15.9302 95.6884 15.028 95.6928 15.0091H95.6913Z" fill="#FF4100"/>
<path d="M118.52 6.54491C117.462 5.5089 116.048 4.97198 114.473 4.99672C112.41 5.02436 110.722 6.36739 110.214 8.3623H109.57C109.963 7.74535 110.443 6.75299 110.613 5.4085C110.641 5.27172 110.671 5.11749 110.671 4.98362V0H107.624V19.2099H110.539V18.9552C110.539 18.5784 110.472 18.1215 110.341 17.6282C110.174 17.0607 109.931 16.5514 109.616 16.112H110.246C110.923 17.7388 112.035 19.5314 114.532 19.5314C116.033 19.5314 117.376 18.977 118.418 17.9294C119.793 16.5442 120.573 14.3674 120.557 11.9549C120.541 9.73443 119.818 7.81373 118.521 6.54491H118.52ZM117.507 11.9607C117.535 13.8014 117.135 15.1939 116.35 15.9898C115.86 16.4874 115.211 16.7508 114.476 16.7508C112.733 16.7508 111.453 15.546 110.67 13.1713V11.1153C111.373 8.99234 112.758 7.7759 114.476 7.7759C115.908 7.7759 117.456 8.87448 117.507 11.9592V11.9607Z" fill="#FF4100"/>
<path d="M127.75 11.5937C127.452 11.3187 127.213 11.0495 126.973 10.7832C126.59 10.3598 126.142 10.0135 125.694 9.66572C125.247 9.31796 124.859 8.92073 124.601 8.40563C124.319 7.84543 124.326 7.29396 124.619 6.74394C124.793 6.41655 125.004 6.11244 125.252 5.83452C125.531 5.52168 125.882 5.35435 126.296 5.31215C126.545 5.28741 126.794 5.30342 127.04 5.34416C127.239 5.37763 127.439 5.414 127.638 5.45329C128.06 5.53623 128.479 5.51004 128.897 5.43292C129.016 5.41109 129.131 5.37181 129.243 5.32233C129.514 5.20011 129.687 4.99785 129.767 4.71266C129.826 4.49876 129.838 4.27905 129.839 4.05933C129.839 3.77559 129.834 3.49185 129.837 3.20812C129.844 2.5999 129.94 2.00914 130.218 1.46057C130.455 0.994952 130.756 0.583167 131.21 0.303793C131.619 0.0520657 132.063 -0.0497893 132.54 0.0229643C133.193 0.123364 133.666 0.562796 133.819 1.20739C133.915 1.6119 133.886 2.0135 133.761 2.40637C133.514 3.18629 133.058 3.80469 132.335 4.21066C132.083 4.3518 131.826 4.48276 131.584 4.64282C131.268 4.85235 131.255 5.16082 131.351 5.41837C131.383 5.50422 131.425 5.58861 131.466 5.6701C131.748 6.23321 131.818 6.81378 131.625 7.42055C131.567 7.60243 131.519 7.78723 131.469 7.97202C131.382 8.29796 131.377 8.62389 131.469 8.94983C131.519 9.1288 131.565 9.30778 131.612 9.48675C131.666 9.69337 131.711 9.9029 131.73 10.1168C131.781 10.6639 131.616 11.1339 131.213 11.5122C130.998 11.7145 130.769 11.8993 130.528 12.0695C129.887 12.5191 129.23 12.5308 128.547 12.1772C128.236 12.0157 127.962 11.8061 127.747 11.5937H127.75Z" fill="#FF4100"/>
<path d="M136.219 6.21716C135.743 6.72789 135.204 7.06838 134.551 7.21388C134.177 7.29682 133.805 7.29973 133.439 7.16587C132.943 6.98398 132.638 6.63186 132.526 6.11822C132.415 5.60894 132.526 5.12731 132.761 4.67624C133.157 3.91815 133.759 3.38414 134.564 3.08439C134.876 2.96799 135.2 2.91415 135.535 2.93598C136.43 2.99418 137.013 3.6446 136.968 4.53946C136.942 5.08366 136.728 5.55801 136.406 5.98871C136.341 6.07602 136.267 6.1575 136.217 6.21716H136.219Z" fill="#FF4100"/>
<path d="M128.559 4.00401C128.349 4.23973 128.114 4.44199 127.831 4.58458C127.462 4.77083 127.088 4.80139 126.723 4.57731C126.507 4.44635 126.341 4.2601 126.209 4.04475C125.7 3.21973 125.647 1.80103 126.643 0.91344C127.19 0.425992 127.829 0.276119 128.531 0.532212C129.169 0.765023 129.53 1.32377 129.503 2.00183C129.487 2.44709 129.336 2.85014 129.119 3.23282C128.962 3.51074 128.779 3.76975 128.559 4.00256V4.00401Z" fill="#FF4100"/>
<path d="M136.571 10.1822C135.677 11.1411 134.308 11.3245 133.345 10.725C133.192 10.6289 133.055 10.5096 132.948 10.367C132.747 10.1022 132.69 9.80538 132.763 9.4809C132.825 9.20443 132.958 8.95998 133.131 8.74172C133.538 8.22517 134.036 7.81775 134.643 7.55293C134.835 7.46999 135.034 7.41179 135.242 7.38414C136.045 7.27937 136.729 7.73045 136.933 8.51764C137.111 9.20298 136.917 9.79519 136.572 10.1837L136.571 10.1822Z" fill="#FF4100"/>
<path d="M0.929791 27.364C1.69516 27.364 2.15933 27.7467 2.15933 28.3476C2.15933 28.6488 2.02255 28.8394 1.83194 28.9762C2.37904 29.1683 2.62495 29.551 2.62495 30.0151C2.62495 30.6714 2.07784 31.1908 1.34012 31.1908H0.0276464L0 31.1632V27.3902L0.0276464 27.3625H0.929791V27.364ZM0.547107 28.8409H0.929791C1.34012 28.8409 1.53074 28.7041 1.53074 28.3491C1.53074 28.0479 1.33867 27.9111 0.929791 27.9111H0.547107V28.8409ZM0.547107 30.6452H1.34012C1.75045 30.6452 1.99636 30.3993 1.99636 30.0166C1.99636 29.6616 1.75045 29.388 1.34012 29.388H0.547107V30.6452Z" fill="#FF4100"/>
<path d="M5.60491 27.364L5.63255 27.3917V27.8835L5.60491 27.9111H3.82827V28.8133H5.16839L5.19603 28.8409V29.3327L5.16839 29.3604H3.82827V30.6452H5.76933L5.79698 30.6728V31.1647L5.76933 31.1923H3.3088L3.28116 31.1647V27.3917L3.3088 27.364H5.60491Z" fill="#FF4100"/>
<path d="M9.21202 27.364L9.23966 27.3917V27.8835L9.21202 27.9111H7.98248V31.1647L7.95483 31.1923H7.46302L7.43537 31.1647V27.9111H6.20584L6.17819 27.8835V27.3917L6.20584 27.364H9.21347H9.21202Z" fill="#FF4100"/>
<path d="M12.1643 27.364L12.192 27.3917V27.8835L12.1643 27.9111H10.3877V28.8133H11.7278L11.7555 28.8409V29.3327L11.7278 29.3604H10.3877V30.6452H12.3287L12.3564 30.6728V31.1647L12.3287 31.1923H9.86822L9.84058 31.1647V27.3917L9.86822 27.364H12.1643Z" fill="#FF4100"/>
<path d="M14.2146 27.364C14.98 27.364 15.5271 27.8835 15.5271 28.5397C15.5271 29.1959 14.98 29.7154 14.2146 29.7154H13.5584V31.1647L13.5308 31.1923H13.0389L13.0113 31.1647V27.3917L13.0331 27.364H14.2146ZM13.5584 29.1683H14.2146C14.625 29.1683 14.8985 28.8947 14.8985 28.5397C14.8985 28.1847 14.625 27.9111 14.2146 27.9111H13.5584V29.1683Z" fill="#FF4100"/>
<path d="M16.6474 27.364L16.6751 27.3917V30.3164L18.9174 27.3917L18.9712 27.364H19.4906L19.5183 27.3917V31.1647L19.4906 31.1923H18.9988L18.9712 31.1647V28.24L16.7289 31.1647L16.6736 31.1923H16.1542L16.1265 31.1647V27.3917L16.1542 27.364H16.646H16.6474Z" fill="#FF4100"/>
<path d="M20.9123 27.364L20.9399 27.3917V28.8133H23.0177V27.3917L23.0454 27.364H23.5372L23.5648 27.3917V31.1647L23.5372 31.1923H23.0454L23.0177 31.1647V29.3604H20.9399V31.1647L20.9123 31.1923H20.4204L20.3928 31.1647V27.3917L20.4204 27.364H20.9123Z" fill="#FF4100"/>
<path d="M26.1055 27.364L26.1331 27.3917L27.6638 31.1647L27.6362 31.1923H27.0891L27.0614 31.1647L26.7064 30.2902H25.0112L24.6562 31.1647L24.6286 31.1923H24.0814L24.0538 31.1647L25.5845 27.3917L25.6122 27.364H26.104H26.1055ZM25.231 29.7431H26.4881L25.8595 28.1308L25.231 29.7431Z" fill="#FF4100"/>
<path d="M29.3575 27.364C30.1228 27.364 30.6699 27.8835 30.6699 28.5397C30.6699 29.1959 30.1228 29.7154 29.3575 29.7154H28.7012V31.1647L28.6736 31.1923H28.1818L28.1541 31.1647V27.3917L28.1759 27.364H29.3575ZM28.7012 29.1683H29.3575C29.7678 29.1683 30.0413 28.8947 30.0413 28.5397C30.0413 28.1847 29.7678 27.9111 29.3575 27.9111H28.7012V29.1683Z" fill="#FF4100"/>
<path d="M31.7904 27.364L31.818 27.3917V28.8133H33.8959V27.3917L33.9235 27.364H34.4153L34.443 27.3917V31.1647L34.4153 31.1923H33.9235L33.8959 31.1647V29.3604H31.818V31.1647L31.7904 31.1923H31.2986L31.2709 31.1647V27.3917L31.2986 27.364H31.7904Z" fill="#FF4100"/>
<path d="M36.985 27.364L37.0126 27.3917L38.5433 31.1647L38.5157 31.1923H37.9686L37.9409 31.1647L37.5859 30.2902H35.8907L35.5357 31.1647L35.5081 31.1923H34.961L34.9333 31.1647L36.464 27.3917L36.4917 27.364H36.9835H36.985ZM36.109 29.7431H37.3662L36.7376 28.1308L36.109 29.7431Z" fill="#FF4100"/>
<path d="M41.6034 27.3917V31.1647L41.5757 31.1923H41.0839L41.0563 31.1647V29.5525H40.5645L39.3611 31.1647L39.3335 31.1923H38.6772L38.6496 31.1647L39.9068 29.4419C39.4965 29.2774 39.2505 28.8948 39.2505 28.4582C39.2505 27.8296 39.7424 27.3655 40.5077 27.3655H41.5743L41.6019 27.3931L41.6034 27.3917ZM40.5106 27.9111C40.1003 27.9111 39.882 28.1294 39.882 28.4582C39.882 28.7871 40.1003 29.0053 40.5106 29.0053H41.0577V27.9111H40.5106Z" fill="#FF4100"/>
<path d="M47.0439 27.364L47.0716 27.3917V31.1647L47.0439 31.1923H46.5521L46.5244 31.1647V27.9111H45.1581L44.7478 30.4808C44.6387 30.9449 44.256 31.2738 43.5998 31.2738L43.5721 31.236V30.782L43.5998 30.7543C43.9272 30.7543 44.1469 30.5899 44.2283 30.2349L44.6663 27.3917L44.694 27.364H47.0454H47.0439Z" fill="#FF4100"/>
<path d="M49.6121 27.364L49.6397 27.3917L51.1705 31.1647L51.1428 31.1923H50.5957L50.5681 31.1647L50.213 30.2902H48.5179L48.1628 31.1647L48.1352 31.1923H47.5881L47.5604 31.1647L49.0912 27.3917L49.1188 27.364H49.6106H49.6121ZM48.7376 29.7431H49.9948L49.3662 28.1308L48.7376 29.7431Z" fill="#FF4100"/>
<path d="M53.9861 27.364L54.0137 27.3917V27.8835L53.9861 27.9111H52.2094V28.8409H53.0024C53.7678 28.8409 54.2873 29.3604 54.2873 30.0166C54.2873 30.6728 53.7678 31.1923 53.0024 31.1923H51.69L51.6623 31.1647V27.3917L51.69 27.364H53.9861ZM52.2094 30.6452H53.0024C53.4128 30.6452 53.6587 30.3716 53.6587 30.0166C53.6587 29.6616 53.4128 29.388 53.0024 29.388H52.2094V30.6452Z" fill="#FF4100"/>
<path d="M58.8242 29.2774C58.8242 30.376 57.9162 31.2723 56.8016 31.2723C55.687 31.2723 54.7791 30.376 54.7791 29.2774C54.7791 28.1789 55.687 27.2825 56.8016 27.2825C57.9162 27.2825 58.8242 28.1789 58.8242 29.2774ZM55.4077 29.2774C55.4077 30.0646 56.0304 30.699 56.8016 30.699C57.5728 30.699 58.1956 30.0646 58.1956 29.2774C58.1956 28.4902 57.5728 27.8558 56.8016 27.8558C56.0304 27.8558 55.4077 28.4902 55.4077 29.2774Z" fill="#FF4100"/>
<path d="M60.7375 27.364C61.5029 27.364 62.05 27.8835 62.05 28.5397C62.05 29.1959 61.5029 29.7154 60.7375 29.7154H60.0813V31.1647L60.0536 31.1923H59.5618L59.5342 31.1647V27.3917L59.556 27.364H60.7375ZM60.0813 29.1683H60.7375C61.1479 29.1683 61.4214 28.8947 61.4214 28.5397C61.4214 28.1847 61.1479 27.9111 60.7375 27.9111H60.0813V29.1683Z" fill="#FF4100"/>
<path d="M63.7729 27.364L63.8005 27.3917L65.3312 31.1647L65.3036 31.1923H64.7565L64.7288 31.1647L64.3738 30.2902H62.6786L62.3236 31.1647L62.296 31.1923H61.7489L61.7212 31.1647L63.2519 27.3917L63.2796 27.364H63.7714H63.7729ZM62.8969 29.7431H64.1541L63.5255 28.1308L62.8969 29.7431Z" fill="#FF4100"/>
<path d="M67.9271 27.364L67.9547 27.3917V27.8835L67.9271 27.9111H66.6976V31.1647L66.6699 31.1923H66.1781L66.1505 31.1647V27.9111H64.9209L64.8933 27.8835V27.3917L64.9209 27.364H67.9286H67.9271Z" fill="#FF4100"/>
<path d="M71.9998 29.2774C71.9998 30.376 71.0918 31.2723 69.9773 31.2723C68.8627 31.2723 67.9547 30.376 67.9547 29.2774C67.9547 28.1789 68.8627 27.2825 69.9773 27.2825C71.0918 27.2825 71.9998 28.1789 71.9998 29.2774ZM68.5833 29.2774C68.5833 30.0646 69.2061 30.699 69.9773 30.699C70.7485 30.699 71.3712 30.0646 71.3712 29.2774C71.3712 28.4902 70.7485 27.8558 69.9773 27.8558C69.2061 27.8558 68.5833 28.4902 68.5833 29.2774Z" fill="#FF4100"/>
<path d="M73.9133 27.364C74.6786 27.364 75.2257 27.8835 75.2257 28.5397C75.2257 29.1959 74.6786 29.7154 73.9133 29.7154H73.257V31.1647L73.2294 31.1923H72.7376L72.7099 31.1647V27.3917L72.7318 27.364H73.9133ZM73.257 29.1683H73.9133C74.3236 29.1683 74.5972 28.8947 74.5972 28.5397C74.5972 28.1847 74.3236 27.9111 73.9133 27.9111H73.257V29.1683Z" fill="#FF4100"/>
<path d="M76.3461 27.364L76.3738 27.3917V30.3164L78.616 27.3917L78.6699 27.364H79.1893L79.217 27.3917V31.1647L79.1893 31.1923H78.6975L78.6699 31.1647V28.24L76.4276 31.1647L76.3723 31.1923H75.8528L75.8252 31.1647V27.3917L75.8528 27.364H76.3447H76.3461Z" fill="#FF4100"/>
<path d="M82.6611 27.3917V31.1647L82.6335 31.1923H82.1417L82.114 31.1647V29.5525H81.6222L80.4189 31.1647L80.3912 31.1923H79.735L79.7073 31.1647L80.9645 29.4419C80.5542 29.2774 80.3083 28.8948 80.3083 28.4582C80.3083 27.8296 80.8001 27.3655 81.5655 27.3655H82.632L82.6597 27.3931L82.6611 27.3917ZM81.5669 27.9111C81.1566 27.9111 80.9383 28.1294 80.9383 28.4582C80.9383 28.7871 81.1566 29.0053 81.5669 29.0053H82.114V27.9111H81.5669Z" fill="#FF4100"/>
</svg>
