<svg width="24" height="24" viewBox="0 0 24 24" fill="none" xmlns="http://www.w3.org/2000/svg">
<path d="M18.1216 9.25157C17.8816 9.01304 17.557 8.87915 17.2187 8.87915C16.8804 8.87915 16.5558 9.01304 16.3158 9.25157L11.7181 13.7852L7.18443 9.25157C6.94448 9.01304 6.61988 8.87915 6.28154 8.87915C5.9432 8.87915 5.6186 9.01304 5.37865 9.25157C5.25861 9.37063 5.16333 9.51227 5.09831 9.66834C5.03329 9.8244 4.99982 9.9918 4.99982 10.1609C4.99982 10.3299 5.03329 10.4973 5.09831 10.6534C5.16333 10.8095 5.25861 10.9511 5.37865 11.0702L10.8088 16.5003C10.9279 16.6204 11.0695 16.7156 11.2256 16.7807C11.3816 16.8457 11.549 16.8792 11.7181 16.8792C11.8872 16.8792 12.0546 16.8457 12.2106 16.7807C12.3667 16.7156 12.5083 16.6204 12.6274 16.5003L18.1216 11.0702C18.2416 10.9511 18.3369 10.8095 18.4019 10.6534C18.4669 10.4973 18.5004 10.3299 18.5004 10.1609C18.5004 9.9918 18.4669 9.8244 18.4019 9.66834C18.3369 9.51227 18.2416 9.37063 18.1216 9.25157Z" fill="#A7A8AB"/>
</svg>
