<svg width="51" height="50" viewBox="0 0 51 50" fill="none" xmlns="http://www.w3.org/2000/svg">
<rect x="1.14056" y="0.5" width="49.3203" height="49" rx="24.5" stroke="#FF4100"/>
<path d="M33.3133 31.646L30.3665 28.6992C32.8354 25.5931 32.3576 21.133 29.2514 18.5844C26.1453 16.0358 21.6852 16.6729 19.2163 19.6994C16.7473 22.7259 17.2252 27.3453 20.3313 29.8142C22.9595 31.885 26.7028 31.885 29.3311 29.8142L32.2779 32.7611C32.5965 33.0796 33.0744 33.0796 33.3929 32.7611C33.6319 32.4425 33.6319 31.9646 33.3133 31.646ZM24.7914 29.8142C21.6852 29.8142 19.2163 27.3453 19.2163 24.2391C19.2163 21.133 21.6852 18.664 24.7914 18.664C27.8975 18.664 30.3665 21.133 30.3665 24.2391C30.3665 27.3453 27.8975 29.8142 24.7914 29.8142Z" fill="#FF4100"/>
</svg>
