<svg width="52" height="50" viewBox="0 0 52 50" fill="none" xmlns="http://www.w3.org/2000/svg">
<rect x="1.46082" y="0.5" width="49.3203" height="49" rx="24.5" stroke="#FF4100"/>
<path fill-rule="evenodd" clip-rule="evenodd" d="M35.2941 32.8571V32.1429C35.2941 30.8168 34.7741 29.545 33.8485 28.6073C32.9228 27.6696 31.6673 27.1429 30.3582 27.1429H21.8967C20.5876 27.1429 19.3322 27.6696 18.4065 28.6073C17.4808 29.545 16.9608 30.8168 16.9608 32.1429V32.8571C16.9608 33.4257 17.1836 33.9707 17.5806 34.3721C17.7769 34.5713 18.0101 34.7292 18.2667 34.837C18.5233 34.9447 18.7984 35.0001 19.0762 35H33.1788C33.74 35 34.2781 34.7743 34.6743 34.3721C34.8709 34.1733 35.0268 33.9371 35.1332 33.6772C35.2395 33.4172 35.2942 33.1385 35.2941 32.8571ZM33.8839 32.1429V32.8571C33.8842 32.951 33.8661 33.044 33.8308 33.1308C33.7954 33.2176 33.7435 33.2965 33.678 33.3629C33.6125 33.4292 33.5346 33.4818 33.4489 33.5176C33.3633 33.5534 33.2714 33.5717 33.1788 33.5714H19.0762C18.9835 33.5717 18.8917 33.5534 18.806 33.5176C18.7204 33.4818 18.6425 33.4292 18.577 33.3629C18.5114 33.2965 18.4595 33.2176 18.4242 33.1308C18.3888 33.044 18.3708 32.951 18.3711 32.8571V32.1429C18.3711 31.1957 18.7425 30.2872 19.4037 29.6175C20.0649 28.9477 20.9617 28.5714 21.8967 28.5714H30.3582C31.2933 28.5714 32.1901 28.9477 32.8513 29.6175C33.5124 30.2872 33.8839 31.1957 33.8839 32.1429ZM26.1275 15C23.209 15 20.839 17.4007 20.839 20.3571C20.839 23.3136 23.209 25.7143 26.1275 25.7143C29.046 25.7143 31.4159 23.3136 31.4159 20.3571C31.4159 17.4007 29.046 15 26.1275 15ZM26.1275 16.4286C28.2683 16.4286 30.0057 18.1886 30.0057 20.3571C30.0057 22.5257 28.2683 24.2857 26.1275 24.2857C23.9867 24.2857 22.2493 22.5257 22.2493 20.3571C22.2493 18.1886 23.9867 16.4286 26.1275 16.4286Z" fill="#FF4100"/>
</svg>
