<svg width="196" height="196" viewBox="0 0 196 196" fill="none" xmlns="http://www.w3.org/2000/svg">
<g clip-path="url(#clip0_2022_892)">
<path d="M156 195C241.604 195 311 125.604 311 40C311 -45.6041 241.604 -115 156 -115C70.3959 -115 1 -45.6041 1 40C1 125.604 70.3959 195 156 195Z" stroke="#D9D9D9" stroke-linecap="round" stroke-linejoin="round"/>
<path d="M156 182.665C234.791 182.665 298.665 118.791 298.665 40C298.665 -38.7914 234.791 -102.664 156 -102.664C77.2086 -102.664 13.3355 -38.7914 13.3355 40C13.3355 118.791 77.2086 182.665 156 182.665Z" stroke="#D9D9D9" stroke-linecap="round" stroke-linejoin="round"/>
<path d="M156 170.324C227.976 170.324 286.324 111.976 286.324 40C286.324 -31.9762 227.976 -90.3244 156 -90.3244C84.0238 -90.3244 25.6756 -31.9762 25.6756 40C25.6756 111.976 84.0238 170.324 156 170.324Z" stroke="#D9D9D9" stroke-linecap="round" stroke-linejoin="round"/>
<path d="M156 157.989C221.164 157.989 273.989 105.163 273.989 40C273.989 -25.1635 221.164 -77.9889 156 -77.9889C90.8366 -77.9889 38.0112 -25.1635 38.0112 40C38.0112 105.163 90.8366 157.989 156 157.989Z" stroke="#D9D9D9" stroke-linecap="round" stroke-linejoin="round"/>
<path d="M156 145.649C214.348 145.649 261.649 98.3482 261.649 40C261.649 -18.3482 214.348 -65.6487 156 -65.6487C97.6519 -65.6487 50.3514 -18.3482 50.3514 40C50.3514 98.3482 97.6519 145.649 156 145.649Z" stroke="#D9D9D9" stroke-linecap="round" stroke-linejoin="round"/>
<path d="M156 133.313C207.535 133.313 249.313 91.5354 249.313 40C249.313 -11.5355 207.535 -53.3133 156 -53.3133C104.465 -53.3133 62.6868 -11.5355 62.6868 40C62.6868 91.5354 104.465 133.313 156 133.313Z" stroke="#D9D9D9" stroke-linecap="round" stroke-linejoin="round"/>
<path d="M156 120.973C200.72 120.973 236.973 84.7201 236.973 39.9999C236.973 -4.72028 200.72 -40.9732 156 -40.9732C111.28 -40.9732 75.0269 -4.72028 75.0269 39.9999C75.0269 84.7201 111.28 120.973 156 120.973Z" stroke="#D9D9D9" stroke-linecap="round" stroke-linejoin="round"/>
<path d="M156 108.638C193.907 108.638 224.638 77.9075 224.638 40C224.638 2.09252 193.907 -28.6376 156 -28.6376C118.092 -28.6376 87.3623 2.09252 87.3623 40C87.3623 77.9075 118.092 108.638 156 108.638Z" stroke="#D9D9D9" stroke-linecap="round" stroke-linejoin="round"/>
<path d="M156 96.2975C187.092 96.2975 212.297 71.0923 212.297 40.0001C212.297 8.90781 187.092 -16.2974 156 -16.2974C124.908 -16.2974 99.7024 8.90781 99.7024 40.0001C99.7024 71.0923 124.908 96.2975 156 96.2975Z" stroke="#D9D9D9" stroke-linecap="round" stroke-linejoin="round"/>
<path d="M156 83.9619C180.28 83.9619 199.962 64.2795 199.962 40C199.962 15.7204 180.28 -3.96201 156 -3.96201C131.721 -3.96201 112.038 15.7204 112.038 40C112.038 64.2795 131.721 83.9619 156 83.9619Z" stroke="#D9D9D9" stroke-linecap="round" stroke-linejoin="round"/>
<path d="M156 71.6219C173.464 71.6219 187.622 57.4643 187.622 40C187.622 22.5358 173.464 8.37817 156 8.37817C138.536 8.37817 124.378 22.5358 124.378 40C124.378 57.4643 138.536 71.6219 156 71.6219Z" stroke="#D9D9D9" stroke-linecap="round" stroke-linejoin="round"/>
<path d="M156 59.2863C166.652 59.2863 175.286 50.6515 175.286 39.9999C175.286 29.3484 166.652 20.7136 156 20.7136C145.348 20.7136 136.714 29.3484 136.714 39.9999C136.714 50.6515 145.348 59.2863 156 59.2863Z" stroke="#D9D9D9" stroke-linecap="round" stroke-linejoin="round"/>
<circle cx="156" cy="40" r="19.5" fill="#F6F6F6" stroke="#D9D9D9"/>
<path d="M151.696 44.3482C152.197 44.8594 152.478 45.5467 152.478 46.2625C152.478 46.9783 152.197 47.6656 151.696 48.1768C150.31 49.5715 147.366 50 147.038 50H146.919C146.789 50.0011 146.66 49.9742 146.541 49.9212C146.422 49.8681 146.315 49.7902 146.229 49.6925C146.143 49.5949 146.078 49.4799 146.04 49.3552C146.002 49.2306 145.991 49.0992 146.008 48.9699C146.053 48.6417 146.464 45.6973 147.831 44.3117C148.348 43.8044 149.046 43.5233 149.771 43.5301C150.496 43.537 151.188 43.8312 151.696 44.3482ZM162.762 41.021C161.113 42.6395 159.277 44.0563 157.293 45.2415C156.894 45.4635 156.446 45.5796 155.989 45.5788C155.627 45.5809 155.269 45.5111 154.934 45.3734C154.599 45.2357 154.295 45.0328 154.039 44.7766L151.304 42.0419C150.884 41.6232 150.612 41.0794 150.528 40.4924C150.444 39.9054 150.553 39.3071 150.839 38.7876C152.024 36.8037 153.441 34.9677 155.06 33.3182C156.33 31.974 157.929 30.9857 159.7 30.4515C161.47 29.9174 163.349 29.856 165.151 30.2735C165.295 30.3169 165.427 30.3954 165.533 30.5019C165.64 30.6085 165.718 30.7399 165.762 30.8842C166.193 32.6885 166.143 34.5745 165.617 36.3535C165.091 38.1324 164.106 39.7419 162.762 41.021ZM161.851 34.1659C161.596 33.9099 161.272 33.7351 160.918 33.6639C160.564 33.5927 160.197 33.6282 159.863 33.7658C159.529 33.9035 159.244 34.1372 159.043 34.4372C158.842 34.7373 158.735 35.0902 158.735 35.4512C158.735 35.8123 158.842 36.1652 159.043 36.4653C159.244 36.7653 159.529 36.999 159.863 37.1366C160.197 37.2743 160.564 37.3098 160.918 37.2386C161.272 37.1673 161.596 36.9926 161.851 36.7366C162.194 36.3986 162.39 35.9385 162.395 35.4569C162.4 34.9752 162.214 34.5111 161.878 34.1659H161.851ZM162.917 42.1057C161.441 43.4874 159.836 44.7237 158.123 45.7976L159.946 47.6208C160.031 47.7052 160.132 47.7721 160.243 47.8174C160.354 47.8628 160.473 47.8858 160.593 47.8851C160.832 47.8841 161.061 47.7892 161.231 47.6208L161.851 47.0009C162.279 46.5762 162.619 46.0706 162.851 45.5135C163.082 44.9565 163.201 44.359 163.2 43.7557C163.214 43.1949 163.127 42.6362 162.945 42.1057H162.917ZM149.016 34.1386L148.396 34.7584C148.226 34.9292 148.131 35.1603 148.131 35.4011C148.131 35.6419 148.226 35.873 148.396 36.0438L150.219 37.8669C151.275 36.156 152.496 34.5531 153.866 33.0811C153.041 32.7699 152.145 32.7042 151.284 32.8918C150.423 33.0795 149.636 33.5125 149.016 34.1386Z" fill="#FF4100"/>
</g>
<defs>
<clipPath id="clip0_2022_892">
<rect width="196" height="196" fill="white"/>
</clipPath>
</defs>
</svg>
