<svg width="40" height="40" viewBox="0 0 40 40" fill="none" xmlns="http://www.w3.org/2000/svg">
<circle cx="20" cy="20" r="19.5" fill="#F6F6F6" stroke="#DECCAD"/>
<path d="M18.5 19C21.2575 19 23.5 16.7575 23.5 14C23.5 11.2425 21.2575 9 18.5 9C15.7425 9 13.5 11.2425 13.5 14C13.5 16.7575 15.7425 19 18.5 19ZM30.8417 28.1C30.5817 28.655 30.0542 29 29.4642 29H23.3717C22.7817 29 22.2533 28.655 21.9942 28.1C21.8594 27.8142 21.8087 27.4961 21.8478 27.1826C21.8869 26.869 22.0142 26.5731 22.215 26.3292L25.1683 22.7917V20.6667H24.335V19H28.5017V20.6667H27.6683V22.7917L30.6217 26.33C31.03 26.8183 31.1167 27.5133 30.8425 28.1H30.8417ZM20.5917 29H11V24.8333C11 22.6583 12.6717 20.8933 14.7975 20.7042L18.4258 24.8333L22.0367 20.6875C22.25 20.6983 22.4642 20.71 22.6683 20.7508V23.185L20.9358 25.26C20.5328 25.7478 20.2764 26.3399 20.1966 26.9676C20.1168 27.5953 20.2168 28.2327 20.485 28.8058C20.5167 28.8733 20.5567 28.935 20.5925 28.9992L20.5917 29Z" fill="#FF4100"/>
</svg>
