<svg width="229" height="229" viewBox="0 0 229 229" fill="none" xmlns="http://www.w3.org/2000/svg">
<path d="M82.6897 135.708L82.8155 135.805C85.6477 138.003 88.5558 140.259 91.0515 143.021L91.0523 143.021C91.1586 143.139 91.2646 143.257 91.3705 143.375C92.8133 144.977 94.2386 146.559 95.9899 148.174L97.2405 149.327C98.3174 150.227 99.5548 151.077 100.906 151.778C102.981 152.853 104.964 153.345 106.877 153.259C108.785 153.173 110.693 152.507 112.62 151.154C114.139 150.084 115.573 148.923 116.923 147.655L116.923 147.655C119.28 145.443 120.238 142.726 119.937 139.493L119.937 139.489C119.822 138.191 119.547 136.902 119.206 135.597L119.206 135.596L119.206 135.595C118.906 134.443 118.609 133.299 118.293 132.156C117.651 129.873 117.685 127.592 118.29 125.334M82.6897 135.708L119.256 125.593M82.6897 135.708C82.6893 135.707 82.689 135.707 82.6887 135.707C79.8803 133.52 77.5021 131.072 75.9346 127.937L75.9332 127.934C74.2622 124.618 74.3049 121.411 76.0352 118.156C77.1225 116.118 78.4352 114.226 79.9737 112.497C81.5939 110.683 83.6146 109.712 86.0535 109.463C87.5477 109.315 89.0586 109.409 90.5769 109.661C91.8503 109.875 93.1238 110.107 94.3973 110.358L94.3978 110.358C97.2785 110.924 100.111 110.74 102.875 110.229M82.6897 135.708L126.151 74.4165M118.29 125.334L119.256 125.593M118.29 125.334C118.29 125.334 118.29 125.334 118.29 125.334L119.256 125.593M118.29 125.334C118.327 125.196 118.364 125.057 118.401 124.917C118.681 123.87 118.967 122.797 119.306 121.738M119.256 125.593C119.293 125.453 119.33 125.314 119.368 125.175C119.648 124.124 119.928 123.076 120.258 122.042M119.306 121.738L120.258 122.042M119.306 121.738C120.464 118.107 120.057 114.639 118.343 111.221L118.343 111.22L118.333 111.199C118.077 110.688 117.785 110.105 117.56 109.502C117.204 108.546 117.025 107.431 117.277 106.319C117.536 105.18 118.226 104.133 119.443 103.326L119.444 103.326C120.631 102.539 121.892 101.849 123.107 101.185C123.525 100.956 123.938 100.731 124.34 100.505M119.306 121.738C119.306 121.738 119.306 121.738 119.306 121.737L120.258 122.042M120.258 122.042L124.34 100.505M124.34 100.505L124.83 101.377M124.34 100.505L119.237 110.773C118.975 110.248 118.703 109.705 118.497 109.152C117.879 107.494 117.963 105.508 119.996 104.159C121.145 103.398 122.351 102.738 123.556 102.08C123.981 101.847 124.407 101.614 124.83 101.377M124.34 100.505C124.34 100.505 124.341 100.505 124.341 100.505L124.83 101.377M124.34 100.505C128.747 98.0311 131.531 94.2701 133.057 89.4586L133.057 89.4574C133.815 87.0783 133.983 84.6784 133.412 82.2729L133.412 82.2725C132.521 78.5156 129.799 75.9893 126 75.4051M124.83 101.377C129.486 98.7633 132.418 94.782 134.01 89.7609C134.816 87.2316 135.003 84.6461 134.385 82.0419C133.401 77.892 130.357 75.0629 126.151 74.4165M126 75.4051C126 75.4051 126 75.4051 126 75.4051L126.151 74.4165M126 75.4051C125.999 75.405 125.999 75.405 125.999 75.4049L126.151 74.4165M126 75.4051C123.178 74.975 120.558 75.5704 118.113 77.0761L118.113 77.0762C115.406 78.7419 113.573 81.2159 112.091 84.1245C110.394 87.4755 109.791 91.1134 109.745 94.9336C109.734 96.0249 109.743 97.0993 109.752 98.1844C109.758 98.9162 109.764 99.6529 109.764 100.403V100.409C109.755 101.845 109.68 103.368 109.259 104.877L109.259 104.879C108.664 106.999 107.348 108.536 105.335 109.445L105.327 109.449L105.327 109.449C104.555 109.79 103.739 110.071 102.875 110.229M102.875 110.229C102.874 110.229 102.874 110.229 102.874 110.23L102.694 109.246L102.875 110.229C102.875 110.229 102.875 110.229 102.875 110.229Z" stroke="black" stroke-width="2"/>
<path d="M149 113.721C146.076 116.827 142.811 118.86 138.881 119.736C136.608 120.24 134.412 120.244 132.284 119.464C129.412 118.411 127.683 116.418 127.035 113.445C126.385 110.453 127.021 107.593 128.461 104.838L128.461 104.837C130.896 100.175 134.583 96.9064 139.531 95.0633L139.532 95.0629C141.415 94.3588 143.363 94.038 145.365 94.1686L145.365 94.1686C148.013 94.3408 150.138 95.3814 151.568 96.9792C152.997 98.5766 153.792 100.798 153.658 103.444L153.658 103.446C153.502 106.7 152.225 109.567 150.24 112.226C149.967 112.59 149.686 112.917 149.42 113.225C149.294 113.373 149.171 113.516 149.054 113.657L149 113.721Z" stroke="black" stroke-width="2"/>
<path d="M89.218 102.883L89.2214 102.885C91.2064 104.103 93.2342 103.976 95.3864 102.891L89.218 102.883ZM89.218 102.883C88.0004 102.143 87.0362 101.074 86.2434 99.785L86.2425 99.7835M89.218 102.883L86.2425 99.7835M86.2425 99.7835C83.1607 94.791 82.8796 86.2193 88.8483 80.896L86.2425 99.7835ZM105.601 87.1205L105.601 87.1179C105.753 83.1703 103.68 79.9788 99.9994 78.6343C95.8468 77.1214 92.117 77.9839 88.8487 80.8957L105.601 87.1205ZM105.601 87.1205C105.505 89.7751 104.604 92.2116 103.257 94.5886L103.257 94.5894M105.601 87.1205L103.257 94.5894M103.257 94.5894C102.278 96.3201 101.144 97.9197 99.7932 99.3508L99.5205 99.6398M103.257 94.5894L99.5205 99.6398M99.5205 99.6398V99.6613M99.5205 99.6398V99.6613M99.5205 99.6613C98.2972 100.99 96.9529 102.1 95.3866 102.891L99.5205 99.6613Z" stroke="black" stroke-width="2"/>
<path d="M153.464 129.356C154.484 133.292 153.445 136.659 151.574 138.919L151.368 139.14C145.913 144.995 137.621 146.052 131.862 142.468C130.966 141.905 130.181 141.216 129.572 140.409L129.571 140.408C128.467 138.952 128.152 137.346 128.56 135.527C128.923 133.924 129.695 132.484 130.738 131.169L130.739 131.167C133.272 127.956 136.348 125.443 140.086 123.812C141.246 123.311 142.439 122.964 143.677 122.799C148.357 122.189 152.282 124.786 153.464 129.356L153.464 129.356Z" stroke="black" stroke-width="2"/>
<path d="M164.716 204.873L165.141 205.812C166.267 208.295 166.52 210.453 165.902 212.286C165.279 214.13 164.014 215.484 162.107 216.348C160.207 217.209 158.359 217.266 156.562 216.52C154.769 215.78 153.309 214.169 152.184 211.685L151.758 210.746C150.632 208.263 150.381 206.099 151.003 204.256C151.629 202.42 152.892 201.071 154.792 200.21C156.699 199.345 158.549 199.283 160.343 200.023C162.132 200.773 163.59 202.389 164.716 204.873ZM162.231 205.806C161.405 203.984 160.411 202.775 159.248 202.178C158.086 201.582 156.889 201.562 155.658 202.12C154.427 202.678 153.653 203.591 153.335 204.859C153.018 206.126 153.272 207.671 154.098 209.492L154.668 210.752C155.494 212.574 156.488 213.783 157.651 214.379C158.813 214.976 160.01 214.996 161.241 214.438C162.472 213.88 163.246 212.967 163.564 211.699C163.881 210.432 163.627 208.887 162.802 207.065L162.231 205.806Z" fill="black"/>
<path d="M134.769 204.219L135.568 207.256L143.592 205.145L142.792 202.108L145.036 201.517L146.331 206.436L133.819 209.728L132.525 204.809L134.769 204.219ZM143.968 215.419L143.132 211.458C142.903 210.436 142.759 209.597 142.7 208.942C142.635 208.297 142.636 207.715 142.702 207.197L145.149 206.553C145.009 207.002 144.953 207.586 144.981 208.306C145.003 209.035 145.149 210.035 145.418 211.305L146.594 216.739L138.083 218.979L135.035 207.396L137.46 206.758L140.013 216.459L143.968 215.419Z" fill="black"/>
<path d="M131.605 220.361L129.099 220.621L128.595 215.748L123.629 216.262L124.133 221.134L121.639 221.392L120.407 209.479L122.901 209.221L123.429 214.327L128.395 213.813L127.867 208.708L130.373 208.448L131.605 220.361Z" fill="black"/>
<path d="M116.689 215.59L116.672 215.964C116.59 217.798 115.993 219.253 114.881 220.33C113.769 221.406 112.335 221.905 110.579 221.826C108.823 221.747 107.44 221.122 106.429 219.95C105.418 218.779 104.953 217.276 105.036 215.442L105.053 215.067C105.135 213.241 105.732 211.786 106.844 210.702C107.956 209.625 109.39 209.127 111.146 209.206C112.902 209.284 114.285 209.91 115.296 211.081C116.307 212.261 116.771 213.763 116.689 215.59ZM114.106 215.908L114.128 215.416C114.182 214.222 113.949 213.23 113.429 212.44C112.909 211.65 112.118 211.232 111.057 211.184C109.988 211.136 109.163 211.482 108.582 212.223C107.994 212.963 107.672 213.934 107.618 215.135L107.597 215.615C107.543 216.817 107.776 217.809 108.296 218.591C108.816 219.381 109.607 219.8 110.668 219.847C111.729 219.895 112.554 219.549 113.143 218.809C113.731 218.077 114.052 217.11 114.106 215.908Z" fill="black"/>
<path d="M95.3586 207.842L92.2375 219.405L89.8276 218.754L91.6569 211.977C91.7221 211.736 91.795 211.48 91.8759 211.211C91.9567 210.941 92.0373 210.688 92.1175 210.451L92.0157 210.423C91.8531 210.606 91.6839 210.783 91.5083 210.954C91.3306 211.133 91.1259 211.336 90.8942 211.565L84.8269 217.404L82.3605 216.739L85.4816 205.176L87.8914 205.826L86.0591 212.615C85.9939 212.856 85.9209 213.111 85.8401 213.381C85.7497 213.656 85.6644 213.912 85.5841 214.149L85.7199 214.186C85.8749 214.001 86.0413 213.82 86.219 213.641C86.3892 213.46 86.5911 213.252 86.8248 213.016L92.8921 207.176L95.3586 207.842Z" fill="black"/>
<path d="M77.5586 201.814C79.1928 202.522 80.2446 203.426 80.7138 204.523C81.1758 205.618 81.1769 206.695 80.7168 207.756L80.6842 207.831L78.4694 206.871L78.5021 206.796C78.7538 206.215 78.7707 205.626 78.5527 205.029C78.3245 204.436 77.748 203.94 76.8234 203.539C76.0421 203.2 75.3645 203.093 74.7905 203.219C74.2134 203.352 73.8021 203.702 73.5566 204.268C73.3514 204.741 73.3475 205.182 73.5447 205.591C73.7389 206.007 74.1836 206.366 74.8788 206.668L76.6206 207.423L75.9025 209.079L74.4404 208.445C73.7594 208.149 73.2145 208.071 72.8057 208.208C72.3937 208.353 72.0851 208.662 71.88 209.135C71.65 209.666 71.6551 210.145 71.8954 210.573C72.1325 211.008 72.5736 211.365 73.2187 211.645C74.0143 211.99 74.7059 212.064 75.2935 211.868C75.874 211.668 76.3025 211.249 76.5792 210.611L76.6118 210.536L78.8373 211.501L78.8047 211.576C78.2949 212.752 77.4752 213.503 76.3453 213.831C75.2155 214.158 73.9052 213.999 72.4143 213.352C71.0023 212.74 70.0484 211.994 69.5526 211.115C69.0568 210.236 69.0218 209.305 69.4476 208.323C69.7056 207.728 70.1332 207.292 70.7304 207.015C71.3245 206.744 71.9967 206.687 72.7469 206.842L72.7609 206.81C71.9864 206.337 71.4666 205.788 71.2015 205.163C70.9364 204.537 70.9547 203.876 71.2562 203.181C71.7379 202.07 72.5558 201.411 73.7097 201.205C74.8637 200.998 76.1466 201.201 77.5586 201.814Z" fill="black"/>
<path d="M56.6267 204.863L54.5801 203.393L57.437 199.414L53.3818 196.502L50.5249 200.481L48.4878 199.019L55.473 189.29L57.5101 190.753L54.5164 194.922L58.5716 197.834L61.5652 193.665L63.6119 195.134L56.6267 204.863Z" fill="black"/>
<path d="M50.1252 189.626C49.26 190.507 48.2437 190.85 47.0763 190.655C45.9034 190.456 44.7736 189.822 43.6871 188.754L41.798 186.898L41.2067 187.5C40.7357 187.979 40.486 188.484 40.4575 189.014C40.4179 189.545 40.6991 190.106 41.3009 190.698C41.8971 191.284 42.4467 191.588 42.9496 191.611C43.4526 191.635 43.8765 191.471 44.2215 191.12L44.32 191.019L46.0837 192.752L45.9687 192.869C45.2733 193.577 44.3643 193.867 43.2417 193.738C42.1135 193.605 41.0117 193.009 39.9362 191.953C38.8664 190.901 38.2715 189.846 38.1518 188.786C38.0266 187.732 38.4513 186.709 39.426 185.717L43.2372 181.839C43.5876 181.482 43.8938 181.115 44.1557 180.737C44.4121 180.365 44.6023 180.009 44.7264 179.671L44.8579 179.537L46.6048 181.254C46.5459 181.47 46.4431 181.714 46.2963 181.986C46.1384 182.258 45.9611 182.511 45.7643 182.745C46.2988 182.591 46.9315 182.605 47.6623 182.786C48.382 182.968 49.0986 183.409 49.8118 184.11C50.6421 184.926 51.1168 185.83 51.236 186.824C51.3497 187.823 50.9794 188.757 50.1252 189.626ZM48.2131 187.977C48.6621 187.52 48.8816 187.035 48.8716 186.521C48.856 186.002 48.5724 185.471 48.0208 184.929C47.4524 184.371 46.7592 184.068 45.9411 184.019C45.1175 183.966 44.4785 184.17 44.024 184.633L42.9562 185.719L44.5777 187.313C45.3077 188.03 45.9825 188.436 46.602 188.53C47.2216 188.624 47.7586 188.44 48.2131 187.977Z" fill="black"/>
<path d="M32.4662 183.736L26.5107 175.825L36.0792 168.622L37.5945 170.635L29.5802 176.668L32.5051 180.553L40.5193 174.52L42.0346 176.533L32.4662 183.736Z" fill="black"/>
<path d="M37.7327 162.435L22.7904 170.352L21.6986 168.291L23.0118 167.516L22.9844 167.464C22.4141 167.439 21.829 167.228 21.229 166.829C20.6253 166.424 20.1314 165.859 19.7473 165.135C19.0341 163.788 18.9589 162.453 19.5218 161.13C20.0741 159.802 21.1441 158.718 22.7319 157.877L23.0633 157.701C24.6441 156.864 26.1437 156.582 27.5621 156.856C28.9736 157.134 30.0341 157.942 30.7437 159.282C31.1278 160.006 31.3329 160.702 31.3592 161.369C31.3817 162.029 31.2579 162.63 30.9875 163.171L36.5585 160.219L37.7327 162.435ZM28.9476 164.252C29.2939 163.821 29.5226 163.293 29.6337 162.668C29.7411 162.036 29.6284 161.407 29.2955 160.778C28.8017 159.846 28.1082 159.338 27.2151 159.255C26.3183 159.164 25.3521 159.393 24.3166 159.942L23.8817 160.172C22.8462 160.721 22.1176 161.39 21.6959 162.179C21.2705 162.961 21.3047 163.819 21.7985 164.751C22.135 165.386 22.5929 165.833 23.1721 166.092C23.7408 166.347 24.3026 166.456 24.8574 166.419L28.9476 164.252Z" fill="black"/>
<path d="M23.3036 152.912C22.1373 153.316 21.0744 153.172 20.1151 152.479C19.1532 151.779 18.4229 150.709 17.9242 149.269L17.0573 146.767L16.2601 147.043C15.6252 147.263 15.1771 147.604 14.9157 148.067C14.6443 148.525 14.6467 149.152 14.9229 149.949C15.1965 150.739 15.5534 151.256 15.9936 151.501C16.4338 151.745 16.8864 151.787 17.3515 151.626L17.4843 151.58L18.2937 153.916L18.1387 153.97C17.2012 154.295 16.2581 154.15 15.3096 153.536C14.3585 152.915 13.6362 151.892 13.1426 150.467C12.6517 149.05 12.5881 147.84 12.9519 146.837C13.3083 145.837 14.1435 145.11 15.4575 144.655L20.5955 142.875C21.0679 142.711 21.5055 142.518 21.908 142.296C22.3033 142.077 22.6316 141.843 22.893 141.595L23.0702 141.534L23.8719 143.848C23.7232 144.015 23.5226 144.188 23.2702 144.367C23.0079 144.54 22.7366 144.688 22.4563 144.81C23.0035 144.91 23.5641 145.203 24.1381 145.691C24.7021 146.173 25.1478 146.887 25.4751 147.832C25.8562 148.932 25.8793 149.953 25.5444 150.896C25.2022 151.841 24.4553 152.514 23.3036 152.912ZM22.3239 150.585C22.9292 150.376 23.3416 150.039 23.561 149.574C23.7778 149.102 23.7597 148.501 23.5065 147.77C23.2457 147.017 22.7595 146.437 22.0482 146.03C21.3342 145.616 20.6709 145.515 20.0582 145.727L18.6187 146.226L19.3628 148.374C19.6978 149.341 20.1219 150.005 20.6351 150.364C21.1482 150.724 21.7112 150.798 22.3239 150.585Z" fill="black"/>
<path d="M21.8886 137.614L10.1092 139.778L9.1139 134.361C8.86544 133.009 8.93227 131.924 9.31438 131.107C9.68741 130.284 10.3849 129.779 11.4069 129.591C12.1061 129.463 12.7198 129.56 13.248 129.884C13.767 130.202 14.1624 130.689 14.434 131.346L14.4686 131.34C14.4391 130.488 14.6156 129.784 14.9982 129.229C15.3717 128.668 15.9388 128.318 16.6995 128.178C17.7522 127.984 18.6436 128.21 19.3736 128.854C20.0959 129.5 20.5799 130.491 20.8255 131.828L21.8886 137.614ZM14.5797 136.419L14.0799 133.699C13.9528 133.008 13.7151 132.535 13.3666 132.281C13.0182 132.027 12.5827 131.949 12.0602 132.045C11.5684 132.135 11.2201 132.358 11.0154 132.713C10.8029 133.07 10.7602 133.594 10.8872 134.286L11.387 137.006L14.5797 136.419ZM19.7087 135.477L19.1517 132.446C19.0218 131.739 18.7722 131.244 18.4027 130.963C18.0241 130.675 17.5736 130.579 17.0511 130.675C16.5363 130.769 16.1562 131.014 15.911 131.409C15.6567 131.797 15.5959 132.352 15.7286 133.074L16.2855 136.106L19.7087 135.477Z" fill="black"/>
<path d="M9.34296 120.488L13.9529 120.549C15.9783 120.577 17.4357 120.808 18.3252 121.24C19.2145 121.664 19.6786 122.474 19.7174 123.668C19.726 123.934 19.7184 124.18 19.6945 124.408C19.6704 124.628 19.6256 124.813 19.5602 124.963L17.4988 125.03C17.5416 124.904 17.5726 124.778 17.592 124.652C17.6033 124.519 17.6064 124.374 17.6013 124.218C17.5831 123.656 17.2937 123.29 16.7332 123.121C16.1724 122.943 15.1727 122.847 13.7339 122.831L7.46988 122.742L7.18695 114.039L19.1572 113.65L19.2387 116.157L9.21273 116.483L9.34296 120.488Z" fill="black"/>
<path d="M13.377 109.277L13.0044 109.234C11.1883 109.025 9.78023 108.345 8.78033 107.192C7.77267 106.038 7.36428 104.63 7.55517 102.97C7.74605 101.309 8.42145 100.085 9.58137 99.2979C10.7335 98.5103 12.2216 98.2213 14.0455 98.4309L14.9769 98.5379L13.9172 107.758L12.1592 107.556L12.9326 100.827L12.6997 100.801C11.9081 100.71 11.2031 100.857 10.5848 101.242C9.95868 101.626 9.59435 102.264 9.49177 103.157C9.37403 104.181 9.66947 104.998 10.3781 105.606C11.0798 106.206 12.0245 106.574 13.2119 106.71L13.7126 106.768C14.9001 106.904 15.9135 106.741 16.753 106.28C17.5847 105.817 18.0644 105.031 18.1919 103.921C18.274 103.207 18.1853 102.575 17.926 102.026C17.6598 101.469 17.3199 101.005 16.9063 100.635L18.2802 99.0473C18.8747 99.4852 19.3691 100.144 19.7635 101.023C20.1502 101.901 20.2748 102.937 20.1375 104.132C19.9234 105.995 19.1991 107.371 17.9646 108.259C16.7224 109.146 15.1932 109.486 13.377 109.277Z" fill="black"/>
<path d="M9.26525 93.0688L9.90415 90.6317L14.6425 91.8738L15.9084 87.0448L11.1701 85.8026L11.806 83.3768L23.3911 86.4138L22.7552 88.8396L17.7901 87.5381L16.5242 92.3671L21.4893 93.6687L20.8504 96.1058L9.26525 93.0688Z" fill="black"/>
<path d="M24.6286 82.3666L13.6234 77.6418L14.6081 75.3481L21.0583 78.1174C21.288 78.216 21.5306 78.3244 21.7859 78.4425C22.0413 78.5607 22.2808 78.6762 22.5043 78.7892L22.5459 78.6923C22.3881 78.5055 22.2369 78.313 22.0924 78.115C21.9407 77.9138 21.768 77.6824 21.5742 77.4207L16.6516 70.5885L17.6594 68.2411L28.6646 72.9659L27.6798 75.2595L21.2189 72.4857C20.9892 72.387 20.7466 72.2787 20.4913 72.1605C20.2318 72.0321 19.9903 71.9114 19.7667 71.7985L19.7113 71.9277C19.8722 72.1073 20.0285 72.2977 20.1802 72.4988C20.335 72.6928 20.5128 72.9222 20.7137 73.187L25.6364 80.0191L24.6286 82.3666Z" fill="black"/>
<path d="M30.4072 69.3232L20.2344 63.0024L21.5518 60.8822L27.5141 64.5869C27.7264 64.7188 27.95 64.8623 28.1847 65.0174C28.4195 65.1725 28.6389 65.3226 28.8431 65.4678L28.8987 65.3782C28.7706 65.1699 28.65 64.957 28.5368 64.7395C28.417 64.5178 28.2809 64.2631 28.1286 63.9753L24.2854 56.4826L25.6337 54.3127L35.8065 60.6335L34.4891 62.7537L28.5168 59.0428C28.3045 58.9109 28.0809 58.7674 27.8462 58.6123C27.6089 58.4465 27.3882 58.291 27.1841 58.1458L27.1099 58.2652C27.2421 58.4669 27.3681 58.6786 27.4879 58.9002C27.6119 59.1152 27.7533 59.3686 27.9123 59.6605L31.7555 67.1533L30.4072 69.3232ZM19.8813 56.7538C20.1699 56.2893 20.2784 55.8187 20.2068 55.3419C20.1326 54.8543 19.86 54.3308 19.389 53.7714L21.113 52.7731C21.7421 53.5963 22.0635 54.426 22.0773 55.2624C22.0911 56.0988 21.8568 56.9052 21.3744 57.6816C20.892 58.458 20.2782 59.0239 19.533 59.3795C18.7878 59.7351 17.8981 59.8124 16.8641 59.6114L16.9842 57.5751C17.7342 57.7744 18.3334 57.8018 18.7819 57.6573C19.2303 57.5129 19.5968 57.2117 19.8813 56.7538Z" fill="black"/>
<path d="M47.709 46.5366L40.7155 45.9363L40.6865 43.6163L49.8036 44.3889L47.709 46.5366ZM38.1089 46.2424L39.6635 44.6484L38.9059 38.4095L40.8859 36.3792L41.9316 45.109L39.5016 47.6006L38.1089 46.2424ZM35.4776 41.9247L44.0517 50.2867L42.2925 52.0904L33.7185 43.7284L35.4776 41.9247Z" fill="black"/>
<path d="M47.4899 38.5411L47.2621 38.2433C46.1467 36.785 45.6692 35.2863 45.8297 33.7473C45.9901 32.2082 46.7685 30.9047 48.1647 29.8367C49.5609 28.7688 51.0227 28.3588 52.5501 28.6069C54.0775 28.855 55.3989 29.7081 56.5144 31.1664L56.7422 31.4643C57.8528 32.9163 58.3303 34.415 58.1746 35.9603C58.0142 37.4994 57.2358 38.8029 55.8396 39.8708C54.4434 40.9388 52.9816 41.3487 51.4542 41.1006C49.922 40.8464 48.6006 39.9932 47.4899 38.5411ZM49.265 36.6375L49.564 37.0285C50.2902 37.9779 51.1062 38.5882 52.0119 38.8593C52.9176 39.1305 53.7925 38.9433 54.6364 38.2978C55.4865 37.6475 55.8962 36.8522 55.8655 35.9118C55.8409 34.9667 55.4631 34.0163 54.7322 33.0607L54.4403 32.6791C53.7093 31.7234 52.8934 31.1131 51.9924 30.8482C51.0867 30.5771 50.2118 30.7643 49.3679 31.4098C48.524 32.0553 48.1143 32.8506 48.1388 33.7957C48.1587 34.7346 48.534 35.6819 49.265 36.6375Z" fill="black"/>
<path d="M63.043 33.8977L57.5586 23.2507L60.6214 21.6729L66.9233 27.0742C67.2588 27.3671 67.4956 27.5879 67.6336 27.7365C67.7786 27.8815 67.9185 28.0336 68.0531 28.1927L68.1365 28.1498C68.0851 27.9477 68.0408 27.7508 68.0036 27.5591C67.9697 27.3569 67.9309 27.0341 67.8871 26.5909L67.143 18.3136L70.1745 16.7519L75.659 27.3989L73.4921 28.5151L69.9234 21.5873C69.7267 21.2053 69.5799 20.9118 69.4831 20.7068C69.3827 20.4949 69.2929 20.2951 69.2138 20.1073L69.1305 20.1503C69.1782 20.3454 69.2245 20.5632 69.2694 20.8038C69.3176 21.0338 69.3618 21.3757 69.4022 21.8294L70.1584 30.2324L68.3561 31.1608L61.9166 25.6459C61.6129 25.3805 61.3761 25.1597 61.2063 24.9836C61.0329 24.8005 60.8788 24.6293 60.7441 24.4702L60.6504 24.5185C60.7642 24.6884 60.8765 24.8722 60.9872 25.07C61.1048 25.2643 61.2549 25.5385 61.4374 25.8927L65.0328 32.8727L63.043 33.8977Z" fill="black"/>
<path d="M76.9454 13.9025L86.4081 10.9845L89.9372 22.4293L87.5296 23.1718L84.5736 13.5859L79.9263 15.019L82.8822 24.6048L80.4746 25.3473L76.9454 13.9025Z" fill="black"/>
<path d="M92.9865 17.9032C92.8046 16.6823 93.1427 15.6643 94.0007 14.8493C94.8664 14.0331 96.0527 13.5128 97.5595 13.2883L100.179 12.898L100.055 12.0635C99.9557 11.3989 99.703 10.8955 99.2965 10.5533C98.8967 10.2021 98.2795 10.0887 97.4449 10.213C96.6181 10.3362 96.044 10.5916 95.7226 10.9791C95.4012 11.3666 95.2768 11.8038 95.3493 12.2906L95.37 12.4297L92.9244 12.7941L92.9002 12.6318C92.754 11.6505 93.0701 10.7503 93.8485 9.93134C94.6347 9.11122 95.7735 8.59006 97.2648 8.36786C98.7484 8.14681 99.9493 8.30754 100.867 8.85004C101.784 9.38482 102.345 10.3399 102.55 11.7154L103.351 17.0935C103.425 17.588 103.534 18.0537 103.678 18.4903C103.821 18.9193 103.99 19.2851 104.185 19.5877L104.213 19.7732L101.79 20.1341C101.653 19.957 101.521 19.728 101.392 19.4471C101.27 19.1572 101.174 18.8633 101.106 18.5654C100.907 19.0848 100.515 19.5816 99.9304 20.0558C99.352 20.5211 98.5683 20.8274 97.5792 20.9748C96.4278 21.1463 95.4197 20.9806 94.5549 20.4775C93.6889 19.9668 93.1661 19.1087 92.9865 17.9032ZM95.4544 17.3696C95.5488 18.0033 95.8041 18.4708 96.2202 18.7721C96.6441 19.0723 97.2385 19.1654 98.0035 19.0514C98.7917 18.934 99.4513 18.5632 99.9823 17.9391C100.521 17.3138 100.743 16.6805 100.647 16.0391L100.423 14.5323L98.1739 14.8673C97.1617 15.0182 96.4315 15.3126 95.9833 15.7506C95.5351 16.1886 95.3588 16.7283 95.4544 17.3696Z" fill="black"/>
<path d="M107.995 7.33873L110.515 7.34057L110.511 12.239L115.504 12.2427L115.507 7.34422L118.015 7.34605L118.006 19.3226L115.498 19.3208L115.502 14.188L110.51 14.1843L110.506 19.3171L107.987 19.3153L107.995 7.33873Z" fill="black"/>
<path d="M122.309 19.4475L124.11 7.60699L126.578 7.98223L125.522 14.922C125.485 15.1691 125.441 15.4312 125.391 15.708C125.341 15.9849 125.289 16.2458 125.236 16.4906L125.341 16.5064C125.482 16.3066 125.63 16.1118 125.785 15.9221C125.942 15.7246 126.122 15.4992 126.327 15.2458L131.698 8.76088L134.224 9.14492L132.424 20.9854L129.956 20.6101L131.013 13.6588C131.051 13.4116 131.094 13.1496 131.144 12.8727C131.203 12.5893 131.259 12.3252 131.312 12.0804L131.173 12.0592C131.04 12.2602 130.895 12.4595 130.739 12.657C130.59 12.8556 130.413 13.0855 130.207 13.3466L124.835 19.8315L122.309 19.4475Z" fill="black"/>
<path d="M136.388 21.7014L139.927 10.2597L142.311 10.9973L140.237 17.7033C140.163 17.9422 140.081 18.1948 139.99 18.4612C139.9 18.7276 139.81 18.9779 139.721 19.2121L139.822 19.2432C139.991 19.0666 140.167 18.896 140.348 18.7314C140.532 18.5593 140.744 18.3632 140.984 18.143L147.26 12.5279L149.7 13.2828L146.161 24.7245L143.777 23.9869L145.854 17.2697C145.928 17.0308 146.01 16.7782 146.101 16.5118C146.201 16.2403 146.296 15.9874 146.385 15.7532L146.25 15.7117C146.089 15.8906 145.916 16.0661 145.732 16.2382C145.555 16.4125 145.346 16.6135 145.104 16.8412L138.828 22.4563L136.388 21.7014Z" fill="black"/>
<path d="M158.653 23.266L159.037 22.5944L164.084 20.565L165.885 21.594L160.941 24.1278L161.263 29.6832L159.462 28.6542L158.653 23.266ZM163.222 25.8763L163.606 25.2047L168.662 23.1811L170.443 24.1985L165.51 26.7381L165.821 32.2877L164.041 31.2703L163.222 25.8763Z" fill="black"/>
<path d="M168.454 35.9662L178.966 22.5262L186.877 28.7134L185.592 30.3564L179.73 25.772L170.503 37.569L168.454 35.9662Z" fill="black"/>
<path d="M182.708 39.8708L182.979 39.6114C184.299 38.347 185.722 37.6981 187.248 37.6648C188.78 37.6261 190.123 38.2105 191.28 39.418C192.436 40.6255 192.947 41.9267 192.812 43.3218C192.682 44.7114 191.954 46.0412 190.628 47.311L189.951 47.9594L183.532 41.2562L184.81 40.0323L189.495 44.9243L189.664 44.7622C190.24 44.211 190.577 43.5746 190.675 42.8529C190.779 42.1257 190.521 41.4377 189.899 40.7889C189.186 40.0441 188.369 39.7501 187.448 39.907C186.539 40.0642 185.652 40.5561 184.789 41.3828L184.425 41.7314C183.562 42.5581 183.04 43.442 182.859 44.3829C182.684 45.3185 182.983 46.1897 183.756 46.9966C184.253 47.5157 184.795 47.8507 185.383 48.0015C185.982 48.1526 186.556 48.1871 187.105 48.1051L187.45 50.1763C186.733 50.3542 185.911 50.3143 184.983 50.0566C184.06 49.7936 183.183 49.2275 182.35 48.3586C181.054 47.0044 180.458 45.5687 180.562 44.0514C180.672 42.5288 181.388 41.1352 182.708 39.8708Z" fill="black"/>
<path d="M187.953 53.4716L197.87 46.756L199.802 49.6087L195.191 56.51C194.94 56.8781 194.749 57.1395 194.618 57.2943C194.492 57.4555 194.357 57.6125 194.215 57.7652L194.268 57.8429C194.462 57.7678 194.653 57.7003 194.838 57.6404C195.035 57.5827 195.351 57.5056 195.786 57.4093L203.915 55.6828L205.827 58.5065L195.911 65.2221L194.544 63.2038L200.997 58.8341C201.352 58.5931 201.626 58.4124 201.818 58.2918C202.017 58.1669 202.204 58.0539 202.381 57.9529L202.329 57.8753C202.141 57.946 201.93 58.018 201.697 58.0912C201.474 58.1665 201.14 58.2512 200.694 58.3455L192.441 60.0988L191.305 58.4202L196.012 51.3686C196.239 51.0354 196.43 50.774 196.585 50.5844C196.746 50.3904 196.897 50.217 197.039 50.0643L196.98 49.977C196.825 50.1103 196.656 50.2437 196.473 50.3772C196.294 50.5172 196.039 50.6989 195.709 50.9223L189.208 55.3249L187.953 53.4716Z" fill="black"/>
<path d="M203.758 67.0726L204.101 66.9204C205.779 66.1753 207.347 66.0601 208.807 66.5746C210.266 67.0891 211.353 68.1497 212.066 69.7562C212.779 71.3628 212.837 72.8799 212.24 74.3075C211.643 75.7351 210.506 76.8215 208.828 77.5665L208.485 77.7187C206.814 78.4606 205.246 78.5759 203.779 78.0645C202.32 77.55 201.233 76.4894 200.52 74.8829C199.807 73.2763 199.749 71.7592 200.346 70.3316C200.95 68.9008 202.087 67.8145 203.758 67.0726ZM205.196 69.2422L204.746 69.4419C203.654 69.927 202.87 70.5784 202.395 71.396C201.921 72.2137 201.899 73.1081 202.33 74.0791C202.765 75.0574 203.443 75.641 204.364 75.8301C205.289 76.0264 206.301 75.8804 207.401 75.3922L207.84 75.1972C208.94 74.7089 209.723 74.0575 210.191 73.2431C210.665 72.4254 210.687 71.531 210.256 70.5599C209.825 69.5889 209.147 69.0052 208.222 68.809C207.304 68.6095 206.295 68.7539 205.196 69.2422Z" fill="black"/>
<path d="M204.089 82.1075L211.772 84.631L211.892 84.9259L217.833 86.6764L218.54 89.168L211.101 86.8189L210.989 86.5096L204.796 84.5992L204.089 82.1075ZM215.682 79.0887L216.456 81.8171L212.321 86.4366L212.322 86.5702L207.101 92.728L206.327 89.9996L210.611 85.1309L210.612 85.0086L215.682 79.0887Z" fill="black"/>
<path d="M213.404 93.8407L213.776 93.7882C215.586 93.5323 217.12 93.8362 218.378 94.6999C219.644 95.5625 220.394 96.8214 220.628 98.4769C220.862 100.132 220.517 101.487 219.593 102.541C218.677 103.593 217.309 104.248 215.492 104.505L214.563 104.636L213.264 95.4464L215.016 95.1987L215.964 101.905L216.196 101.873C216.985 101.761 217.631 101.441 218.132 100.913C218.641 100.383 218.833 99.6735 218.707 98.7839C218.563 97.7628 218.071 97.0472 217.232 96.6372C216.401 96.2338 215.395 96.1157 214.211 96.283L213.712 96.3536C212.529 96.5208 211.589 96.9338 210.893 97.5923C210.205 98.2498 209.939 99.1316 210.095 100.238C210.196 100.95 210.441 101.538 210.83 102.004C211.228 102.476 211.674 102.839 212.167 103.093L211.238 104.976C210.553 104.702 209.908 104.19 209.305 103.439C208.709 102.686 208.327 101.715 208.159 100.523C207.897 98.6668 208.251 97.1531 209.221 95.9823C210.2 94.8104 211.594 94.0965 213.404 93.8407Z" fill="black"/>
<path d="M219.547 111.822L214.943 111.591C212.92 111.488 211.472 111.205 210.599 110.74C209.726 110.283 209.292 109.457 209.297 108.261C209.299 107.996 209.315 107.75 209.348 107.523C209.38 107.305 209.431 107.121 209.502 106.973L211.565 106.982C211.517 107.107 211.482 107.232 211.458 107.357C211.441 107.49 211.433 107.634 211.432 107.79C211.43 108.353 211.706 108.729 212.259 108.919C212.813 109.117 213.809 109.25 215.246 109.319L221.502 109.639L221.464 118.346L209.487 118.294L209.499 115.786L219.53 115.83L219.547 111.822Z" fill="black"/>
<path d="M221.177 124.604L219.653 134.388L207.819 132.545L208.207 130.055L218.119 131.599L218.867 126.794L208.956 125.25L209.343 122.76L221.177 124.604Z" fill="black"/>
<path d="M208.866 136.786L212.409 141.077L217.756 139.572L217.143 141.529L212.06 143.485L211.322 143.254L208.253 138.743L208.866 136.786ZM207.293 141.807L210.84 146.087L216.183 144.593L215.567 146.561L210.484 148.517L209.746 148.286L206.676 143.776L207.293 141.807Z" fill="black"/>
</svg>
