<svg width="540" height="68" viewBox="0 0 540 68" fill="none" xmlns="http://www.w3.org/2000/svg">
<path d="M541.745 35.6033C541.93 35.625 542.039 35.7063 541.987 35.7844C541.936 35.8625 541.745 35.9092 541.559 35.8875C518.632 33.1705 495.244 25.9025 472.132 18.7213C441.953 9.34373 412.247 0.112584 384.842 1.4228C328.06 4.1365 317.328 23.4827 307.044 42.022C296.826 60.4453 287.046 78.0757 233.279 77.9998C189.72 77.939 161.064 66.5788 130.861 54.6046C97.2091 41.2628 61.6265 27.1563 1.3484 27.1563C1.15581 27.1563 1 27.0902 1 27.0077C1 26.9253 1.15581 26.8592 1.3484 26.8592C61.8981 26.8592 97.5845 41.0068 131.335 54.3877C161.436 66.3217 189.995 77.644 233.279 77.7037C286.495 77.7774 296.212 60.2587 306.367 41.9526C316.704 23.3146 327.494 3.86426 384.766 1.1267C412.438 -0.196528 442.253 9.06824 472.543 18.4805C495.604 25.6466 518.943 32.8983 541.744 35.6" fill="black"/>
<path d="M541.745 35.6033C541.93 35.625 542.039 35.7063 541.987 35.7844C541.936 35.8625 541.745 35.9092 541.559 35.8875C518.632 33.1705 495.244 25.9025 472.132 18.7213C441.953 9.34373 412.247 0.112585 384.842 1.4228C328.06 4.1365 317.328 23.4827 307.044 42.022C296.826 60.4453 287.046 78.0757 233.279 77.9998C189.72 77.939 161.064 66.5788 130.861 54.6046C97.2091 41.2628 61.6265 27.1563 1.3484 27.1563C1.15581 27.1563 1 27.0902 1 27.0077C1 26.9253 1.15581 26.8592 1.3484 26.8592C61.8981 26.8592 97.5845 41.0068 131.335 54.3877C161.436 66.3217 189.995 77.644 233.279 77.7037C286.495 77.7774 296.212 60.2587 306.367 41.9526C316.704 23.3146 327.494 3.86426 384.766 1.1267C412.438 -0.196528 442.253 9.06824 472.543 18.4805C495.604 25.6466 518.943 32.8983 541.744 35.6" stroke="#DECCAD"/>
</svg>
