<svg width="540" height="91" viewBox="0 0 540 91" fill="none" xmlns="http://www.w3.org/2000/svg">
<path d="M0.255249 43.3967C0.0702515 43.375 -0.0390625 43.2937 0.0128784 43.2156C0.0637817 43.1375 0.255249 43.0908 0.441345 43.1125C23.3678 45.8295 46.7563 53.0975 69.8678 60.2787C100.047 69.6563 129.753 78.8874 157.158 77.5772C213.94 74.8635 224.672 55.5173 234.956 36.978C245.174 18.5547 254.954 0.924324 308.721 1.00024C352.28 1.06098 380.936 12.4212 411.139 24.3954C444.791 37.7372 480.373 51.8437 540.652 51.8437C540.844 51.8437 541 51.9098 541 51.9923C541 52.0747 540.844 52.1408 540.652 52.1408C480.102 52.1408 444.415 37.9932 410.665 24.6123C380.564 12.6783 352.005 1.356 308.721 1.29634C255.505 1.22259 245.788 18.7413 235.633 37.0474C225.296 55.6854 214.506 75.1357 157.234 77.8733C129.562 79.1965 99.7472 69.9318 69.4566 60.5195C46.396 53.3534 23.0573 46.1017 0.256348 43.4" fill="black"/>
<path d="M0.255249 43.3967C0.0702273 43.375 -0.039038 43.2937 0.012898 43.2156C0.0637519 43.1375 0.255258 43.0908 0.441362 43.1125C23.3678 45.8295 46.7563 53.0975 69.8678 60.2787C100.047 69.6563 129.753 78.8874 157.158 77.5772C213.94 74.8635 224.672 55.5173 234.956 36.978C245.174 18.5547 254.954 0.924321 308.721 1.00024C352.28 1.06098 380.936 12.4212 411.139 24.3954C444.791 37.7372 480.373 51.8437 540.652 51.8437C540.844 51.8437 541 51.9098 541 51.9923C541 52.0747 540.844 52.1408 540.652 52.1408C480.102 52.1408 444.415 37.9932 410.665 24.6123C380.564 12.6783 352.005 1.35599 308.721 1.29634C255.505 1.22259 245.788 18.7413 235.633 37.0474C225.296 55.6854 214.506 75.1357 157.234 77.8733C129.562 79.1965 99.7472 69.9318 69.4566 60.5195C46.396 53.3534 23.0573 46.1017 0.256352 43.4" stroke="#D9D9D9"/>
</svg>
