<svg width="540" height="74" viewBox="0 0 540 74" fill="none" xmlns="http://www.w3.org/2000/svg">
<path d="M-6.90753 42.4438C-7.04825 42.3816 -7.02609 42.2878 -6.85656 42.2354C-6.68815 42.183 -6.43552 42.1917 -6.2948 42.2539C24.798 56.172 56.9124 62.0207 88.146 62.647C119.389 63.2734 149.778 58.6729 177.395 51.6927C204.43 44.8597 229.431 37.1494 253.026 29.8723C295.973 16.6265 334.275 4.81337 371.834 2.30038C405.285 0.0623735 433.493 0.758546 461.121 4.03863C488.732 7.31763 515.746 13.1762 546.83 21.2662C547.01 21.3131 547.054 21.4059 546.928 21.4724C546.802 21.5401 546.553 21.5564 546.372 21.5095C515.349 13.4348 488.398 7.58933 460.879 4.32125C433.376 1.05534 405.289 0.363544 371.974 2.59173C334.622 5.09054 296.396 16.8807 253.536 30.0993C229.925 37.3807 204.909 45.0965 177.841 51.9382C150.091 58.9523 119.54 63.5723 88.1027 62.9427C56.6565 62.3131 24.3426 56.4317 -6.91085 42.4427" fill="#D9D9D9"/>
<path d="M-6.90753 42.4438C-7.04825 42.3816 -7.02609 42.2878 -6.85656 42.2354C-6.68815 42.183 -6.43552 42.1918 -6.2948 42.2539C24.798 56.172 56.9124 62.0207 88.146 62.647C119.389 63.2734 149.778 58.6729 177.395 51.6927C204.43 44.8597 229.431 37.1494 253.026 29.8723C295.973 16.6265 334.275 4.81337 371.834 2.30038C405.285 0.0623735 433.493 0.758546 461.121 4.03863C488.732 7.31763 515.746 13.1762 546.83 21.2662C547.011 21.3131 547.054 21.4059 546.928 21.4724C546.802 21.5401 546.553 21.5564 546.372 21.5095C515.349 13.4348 488.398 7.58933 460.879 4.32125C433.376 1.05534 405.289 0.363544 371.973 2.59173C334.622 5.09054 296.396 16.8807 253.536 30.0993C229.925 37.3807 204.909 45.0965 177.841 51.9382C150.091 58.9523 119.54 63.5723 88.1027 62.9427C56.6565 62.3131 24.3426 56.4317 -6.91085 42.4427" stroke="#D9D9D9"/>
</svg>
